<?xml version="1.0" encoding="utf-8" standalone="no"?>
<!DOCTYPE svg PUBLIC "-//W3C//DTD SVG 1.1//EN"
  "http://www.w3.org/Graphics/SVG/1.1/DTD/svg11.dtd">
<!-- Created with matplotlib (https://matplotlib.org/) -->
<svg height="318.340344pt" version="1.1" viewBox="0 0 477.357575 318.340344" width="477.357575pt" xmlns="http://www.w3.org/2000/svg" xmlns:xlink="http://www.w3.org/1999/xlink">
 <metadata>
  <rdf:RDF xmlns:cc="http://creativecommons.org/ns#" xmlns:dc="http://purl.org/dc/elements/1.1/" xmlns:rdf="http://www.w3.org/1999/02/22-rdf-syntax-ns#">
   <cc:Work>
    <dc:type rdf:resource="http://purl.org/dc/dcmitype/StillImage"/>
    <dc:date>2020-11-09T15:49:05.403978</dc:date>
    <dc:format>image/svg+xml</dc:format>
    <dc:creator>
     <cc:Agent>
      <dc:title>Matplotlib v3.3.2, https://matplotlib.org/</dc:title>
     </cc:Agent>
    </dc:creator>
   </cc:Work>
  </rdf:RDF>
 </metadata>
 <defs>
  <style type="text/css">*{stroke-linecap:butt;stroke-linejoin:round;}</style>
 </defs>
 <g id="figure_1">
  <g id="patch_1">
   <path d="M 0 318.340344 
L 477.357575 318.340344 
L 477.357575 0 
L 0 0 
z
" style="fill:#ffffff;"/>
  </g>
  <g id="axes_1">
   <g id="patch_2">
    <path d="M 112.078594 291.5805 
L 469.198594 291.5805 
L 469.198594 30.6525 
L 112.078594 30.6525 
z
" style="fill:#eaeaf2;"/>
   </g>
   <g id="matplotlib.axis_1">
    <g id="xtick_1">
     <g id="line2d_1">
      <path clip-path="url(#p2db7ea8d40)" d="M 140.335563 291.5805 
L 140.335563 30.6525 
" style="fill:none;stroke:#ffffff;stroke-linecap:round;"/>
     </g>
     <g id="text_1">
      <!-- 20 -->
      <g style="fill:#262626;" transform="translate(134.218532 308.954094)scale(0.11 -0.11)">
       <defs>
        <path d="M 50.34375 8.453125 
L 50.34375 0 
L 3.03125 0 
Q 2.9375 3.171875 4.046875 6.109375 
Q 5.859375 10.9375 9.828125 15.625 
Q 13.8125 20.3125 21.34375 26.46875 
Q 33.015625 36.03125 37.109375 41.625 
Q 41.21875 47.21875 41.21875 52.203125 
Q 41.21875 57.421875 37.46875 61 
Q 33.734375 64.59375 27.734375 64.59375 
Q 21.390625 64.59375 17.578125 60.78125 
Q 13.765625 56.984375 13.71875 50.25 
L 4.6875 51.171875 
Q 5.609375 61.28125 11.65625 66.578125 
Q 17.71875 71.875 27.9375 71.875 
Q 38.234375 71.875 44.234375 66.15625 
Q 50.25 60.453125 50.25 52 
Q 50.25 47.703125 48.484375 43.546875 
Q 46.734375 39.40625 42.65625 34.8125 
Q 38.578125 30.21875 29.109375 22.21875 
Q 21.1875 15.578125 18.9375 13.203125 
Q 16.703125 10.84375 15.234375 8.453125 
z
" id="ArialMT-50"/>
        <path d="M 4.15625 35.296875 
Q 4.15625 48 6.765625 55.734375 
Q 9.375 63.484375 14.515625 67.671875 
Q 19.671875 71.875 27.484375 71.875 
Q 33.25 71.875 37.59375 69.546875 
Q 41.9375 67.234375 44.765625 62.859375 
Q 47.609375 58.5 49.21875 52.21875 
Q 50.828125 45.953125 50.828125 35.296875 
Q 50.828125 22.703125 48.234375 14.96875 
Q 45.65625 7.234375 40.5 3 
Q 35.359375 -1.21875 27.484375 -1.21875 
Q 17.140625 -1.21875 11.234375 6.203125 
Q 4.15625 15.140625 4.15625 35.296875 
z
M 13.1875 35.296875 
Q 13.1875 17.671875 17.3125 11.828125 
Q 21.4375 6 27.484375 6 
Q 33.546875 6 37.671875 11.859375 
Q 41.796875 17.71875 41.796875 35.296875 
Q 41.796875 52.984375 37.671875 58.78125 
Q 33.546875 64.59375 27.390625 64.59375 
Q 21.34375 64.59375 17.71875 59.46875 
Q 13.1875 52.9375 13.1875 35.296875 
z
" id="ArialMT-48"/>
       </defs>
       <use xlink:href="#ArialMT-50"/>
       <use x="55.615234" xlink:href="#ArialMT-48"/>
      </g>
     </g>
    </g>
    <g id="xtick_2">
     <g id="line2d_2">
      <path clip-path="url(#p2db7ea8d40)" d="M 180.416372 291.5805 
L 180.416372 30.6525 
" style="fill:none;stroke:#ffffff;stroke-linecap:round;"/>
     </g>
     <g id="text_2">
      <!-- 30 -->
      <g style="fill:#262626;" transform="translate(174.29934 308.954094)scale(0.11 -0.11)">
       <defs>
        <path d="M 4.203125 18.890625 
L 12.984375 20.0625 
Q 14.5 12.59375 18.140625 9.296875 
Q 21.78125 6 27 6 
Q 33.203125 6 37.46875 10.296875 
Q 41.75 14.59375 41.75 20.953125 
Q 41.75 27 37.796875 30.921875 
Q 33.84375 34.859375 27.734375 34.859375 
Q 25.25 34.859375 21.53125 33.890625 
L 22.515625 41.609375 
Q 23.390625 41.5 23.921875 41.5 
Q 29.546875 41.5 34.03125 44.421875 
Q 38.53125 47.359375 38.53125 53.46875 
Q 38.53125 58.296875 35.25 61.46875 
Q 31.984375 64.65625 26.8125 64.65625 
Q 21.6875 64.65625 18.265625 61.421875 
Q 14.84375 58.203125 13.875 51.765625 
L 5.078125 53.328125 
Q 6.6875 62.15625 12.390625 67.015625 
Q 18.109375 71.875 26.609375 71.875 
Q 32.46875 71.875 37.390625 69.359375 
Q 42.328125 66.84375 44.9375 62.5 
Q 47.5625 58.15625 47.5625 53.265625 
Q 47.5625 48.640625 45.0625 44.828125 
Q 42.578125 41.015625 37.703125 38.765625 
Q 44.046875 37.3125 47.5625 32.6875 
Q 51.078125 28.078125 51.078125 21.140625 
Q 51.078125 11.765625 44.234375 5.25 
Q 37.40625 -1.265625 26.953125 -1.265625 
Q 17.53125 -1.265625 11.296875 4.34375 
Q 5.078125 9.96875 4.203125 18.890625 
z
" id="ArialMT-51"/>
       </defs>
       <use xlink:href="#ArialMT-51"/>
       <use x="55.615234" xlink:href="#ArialMT-48"/>
      </g>
     </g>
    </g>
    <g id="xtick_3">
     <g id="line2d_3">
      <path clip-path="url(#p2db7ea8d40)" d="M 220.49718 291.5805 
L 220.49718 30.6525 
" style="fill:none;stroke:#ffffff;stroke-linecap:round;"/>
     </g>
     <g id="text_3">
      <!-- 40 -->
      <g style="fill:#262626;" transform="translate(214.380148 308.954094)scale(0.11 -0.11)">
       <defs>
        <path d="M 32.328125 0 
L 32.328125 17.140625 
L 1.265625 17.140625 
L 1.265625 25.203125 
L 33.9375 71.578125 
L 41.109375 71.578125 
L 41.109375 25.203125 
L 50.78125 25.203125 
L 50.78125 17.140625 
L 41.109375 17.140625 
L 41.109375 0 
z
M 32.328125 25.203125 
L 32.328125 57.46875 
L 9.90625 25.203125 
z
" id="ArialMT-52"/>
       </defs>
       <use xlink:href="#ArialMT-52"/>
       <use x="55.615234" xlink:href="#ArialMT-48"/>
      </g>
     </g>
    </g>
    <g id="xtick_4">
     <g id="line2d_4">
      <path clip-path="url(#p2db7ea8d40)" d="M 260.577988 291.5805 
L 260.577988 30.6525 
" style="fill:none;stroke:#ffffff;stroke-linecap:round;"/>
     </g>
     <g id="text_4">
      <!-- 50 -->
      <g style="fill:#262626;" transform="translate(254.460956 308.954094)scale(0.11 -0.11)">
       <defs>
        <path d="M 4.15625 18.75 
L 13.375 19.53125 
Q 14.40625 12.796875 18.140625 9.390625 
Q 21.875 6 27.15625 6 
Q 33.5 6 37.890625 10.78125 
Q 42.28125 15.578125 42.28125 23.484375 
Q 42.28125 31 38.0625 35.34375 
Q 33.84375 39.703125 27 39.703125 
Q 22.75 39.703125 19.328125 37.765625 
Q 15.921875 35.84375 13.96875 32.765625 
L 5.71875 33.84375 
L 12.640625 70.609375 
L 48.25 70.609375 
L 48.25 62.203125 
L 19.671875 62.203125 
L 15.828125 42.96875 
Q 22.265625 47.46875 29.34375 47.46875 
Q 38.71875 47.46875 45.15625 40.96875 
Q 51.609375 34.46875 51.609375 24.265625 
Q 51.609375 14.546875 45.953125 7.46875 
Q 39.0625 -1.21875 27.15625 -1.21875 
Q 17.390625 -1.21875 11.203125 4.25 
Q 5.03125 9.71875 4.15625 18.75 
z
" id="ArialMT-53"/>
       </defs>
       <use xlink:href="#ArialMT-53"/>
       <use x="55.615234" xlink:href="#ArialMT-48"/>
      </g>
     </g>
    </g>
    <g id="xtick_5">
     <g id="line2d_5">
      <path clip-path="url(#p2db7ea8d40)" d="M 300.658796 291.5805 
L 300.658796 30.6525 
" style="fill:none;stroke:#ffffff;stroke-linecap:round;"/>
     </g>
     <g id="text_5">
      <!-- 60 -->
      <g style="fill:#262626;" transform="translate(294.541765 308.954094)scale(0.11 -0.11)">
       <defs>
        <path d="M 49.75 54.046875 
L 41.015625 53.375 
Q 39.84375 58.546875 37.703125 60.890625 
Q 34.125 64.65625 28.90625 64.65625 
Q 24.703125 64.65625 21.53125 62.3125 
Q 17.390625 59.28125 14.984375 53.46875 
Q 12.59375 47.65625 12.5 36.921875 
Q 15.671875 41.75 20.265625 44.09375 
Q 24.859375 46.4375 29.890625 46.4375 
Q 38.671875 46.4375 44.84375 39.96875 
Q 51.03125 33.5 51.03125 23.25 
Q 51.03125 16.5 48.125 10.71875 
Q 45.21875 4.9375 40.140625 1.859375 
Q 35.0625 -1.21875 28.609375 -1.21875 
Q 17.625 -1.21875 10.6875 6.859375 
Q 3.765625 14.9375 3.765625 33.5 
Q 3.765625 54.25 11.421875 63.671875 
Q 18.109375 71.875 29.4375 71.875 
Q 37.890625 71.875 43.28125 67.140625 
Q 48.6875 62.40625 49.75 54.046875 
z
M 13.875 23.1875 
Q 13.875 18.65625 15.796875 14.5 
Q 17.71875 10.359375 21.1875 8.171875 
Q 24.65625 6 28.46875 6 
Q 34.03125 6 38.03125 10.484375 
Q 42.046875 14.984375 42.046875 22.703125 
Q 42.046875 30.125 38.078125 34.390625 
Q 34.125 38.671875 28.125 38.671875 
Q 22.171875 38.671875 18.015625 34.390625 
Q 13.875 30.125 13.875 23.1875 
z
" id="ArialMT-54"/>
       </defs>
       <use xlink:href="#ArialMT-54"/>
       <use x="55.615234" xlink:href="#ArialMT-48"/>
      </g>
     </g>
    </g>
    <g id="xtick_6">
     <g id="line2d_6">
      <path clip-path="url(#p2db7ea8d40)" d="M 340.739604 291.5805 
L 340.739604 30.6525 
" style="fill:none;stroke:#ffffff;stroke-linecap:round;"/>
     </g>
     <g id="text_6">
      <!-- 70 -->
      <g style="fill:#262626;" transform="translate(334.622573 308.954094)scale(0.11 -0.11)">
       <defs>
        <path d="M 4.734375 62.203125 
L 4.734375 70.65625 
L 51.078125 70.65625 
L 51.078125 63.8125 
Q 44.234375 56.546875 37.515625 44.484375 
Q 30.8125 32.421875 27.15625 19.671875 
Q 24.515625 10.6875 23.78125 0 
L 14.75 0 
Q 14.890625 8.453125 18.0625 20.40625 
Q 21.234375 32.375 27.171875 43.484375 
Q 33.109375 54.59375 39.796875 62.203125 
z
" id="ArialMT-55"/>
       </defs>
       <use xlink:href="#ArialMT-55"/>
       <use x="55.615234" xlink:href="#ArialMT-48"/>
      </g>
     </g>
    </g>
    <g id="xtick_7">
     <g id="line2d_7">
      <path clip-path="url(#p2db7ea8d40)" d="M 380.820412 291.5805 
L 380.820412 30.6525 
" style="fill:none;stroke:#ffffff;stroke-linecap:round;"/>
     </g>
     <g id="text_7">
      <!-- 80 -->
      <g style="fill:#262626;" transform="translate(374.703381 308.954094)scale(0.11 -0.11)">
       <defs>
        <path d="M 17.671875 38.8125 
Q 12.203125 40.828125 9.5625 44.53125 
Q 6.9375 48.25 6.9375 53.421875 
Q 6.9375 61.234375 12.546875 66.546875 
Q 18.171875 71.875 27.484375 71.875 
Q 36.859375 71.875 42.578125 66.421875 
Q 48.296875 60.984375 48.296875 53.171875 
Q 48.296875 48.1875 45.671875 44.5 
Q 43.0625 40.828125 37.75 38.8125 
Q 44.34375 36.671875 47.78125 31.875 
Q 51.21875 27.09375 51.21875 20.453125 
Q 51.21875 11.28125 44.71875 5.03125 
Q 38.234375 -1.21875 27.640625 -1.21875 
Q 17.046875 -1.21875 10.546875 5.046875 
Q 4.046875 11.328125 4.046875 20.703125 
Q 4.046875 27.6875 7.59375 32.390625 
Q 11.140625 37.109375 17.671875 38.8125 
z
M 15.921875 53.71875 
Q 15.921875 48.640625 19.1875 45.40625 
Q 22.46875 42.1875 27.6875 42.1875 
Q 32.765625 42.1875 36.015625 45.375 
Q 39.265625 48.578125 39.265625 53.21875 
Q 39.265625 58.0625 35.90625 61.359375 
Q 32.5625 64.65625 27.59375 64.65625 
Q 22.5625 64.65625 19.234375 61.421875 
Q 15.921875 58.203125 15.921875 53.71875 
z
M 13.09375 20.65625 
Q 13.09375 16.890625 14.875 13.375 
Q 16.65625 9.859375 20.171875 7.921875 
Q 23.6875 6 27.734375 6 
Q 34.03125 6 38.125 10.046875 
Q 42.234375 14.109375 42.234375 20.359375 
Q 42.234375 26.703125 38.015625 30.859375 
Q 33.796875 35.015625 27.4375 35.015625 
Q 21.234375 35.015625 17.15625 30.90625 
Q 13.09375 26.8125 13.09375 20.65625 
z
" id="ArialMT-56"/>
       </defs>
       <use xlink:href="#ArialMT-56"/>
       <use x="55.615234" xlink:href="#ArialMT-48"/>
      </g>
     </g>
    </g>
    <g id="xtick_8">
     <g id="line2d_8">
      <path clip-path="url(#p2db7ea8d40)" d="M 420.90122 291.5805 
L 420.90122 30.6525 
" style="fill:none;stroke:#ffffff;stroke-linecap:round;"/>
     </g>
     <g id="text_8">
      <!-- 90 -->
      <g style="fill:#262626;" transform="translate(414.784189 308.954094)scale(0.11 -0.11)">
       <defs>
        <path d="M 5.46875 16.546875 
L 13.921875 17.328125 
Q 14.984375 11.375 18.015625 8.6875 
Q 21.046875 6 25.78125 6 
Q 29.828125 6 32.875 7.859375 
Q 35.9375 9.71875 37.890625 12.8125 
Q 39.84375 15.921875 41.15625 21.1875 
Q 42.484375 26.46875 42.484375 31.9375 
Q 42.484375 32.515625 42.4375 33.6875 
Q 39.796875 29.5 35.234375 26.875 
Q 30.671875 24.265625 25.34375 24.265625 
Q 16.453125 24.265625 10.296875 30.703125 
Q 4.15625 37.15625 4.15625 47.703125 
Q 4.15625 58.59375 10.578125 65.234375 
Q 17 71.875 26.65625 71.875 
Q 33.640625 71.875 39.421875 68.109375 
Q 45.21875 64.359375 48.21875 57.390625 
Q 51.21875 50.4375 51.21875 37.25 
Q 51.21875 23.53125 48.234375 15.40625 
Q 45.265625 7.28125 39.375 3.03125 
Q 33.5 -1.21875 25.59375 -1.21875 
Q 17.1875 -1.21875 11.859375 3.4375 
Q 6.546875 8.109375 5.46875 16.546875 
z
M 41.453125 48.140625 
Q 41.453125 55.71875 37.421875 60.15625 
Q 33.40625 64.59375 27.734375 64.59375 
Q 21.875 64.59375 17.53125 59.8125 
Q 13.1875 55.03125 13.1875 47.40625 
Q 13.1875 40.578125 17.3125 36.296875 
Q 21.4375 32.03125 27.484375 32.03125 
Q 33.59375 32.03125 37.515625 36.296875 
Q 41.453125 40.578125 41.453125 48.140625 
z
" id="ArialMT-57"/>
       </defs>
       <use xlink:href="#ArialMT-57"/>
       <use x="55.615234" xlink:href="#ArialMT-48"/>
      </g>
     </g>
    </g>
    <g id="xtick_9">
     <g id="line2d_9">
      <path clip-path="url(#p2db7ea8d40)" d="M 460.982028 291.5805 
L 460.982028 30.6525 
" style="fill:none;stroke:#ffffff;stroke-linecap:round;"/>
     </g>
     <g id="text_9">
      <!-- 100 -->
      <g style="fill:#262626;" transform="translate(451.806481 308.954094)scale(0.11 -0.11)">
       <defs>
        <path d="M 37.25 0 
L 28.46875 0 
L 28.46875 56 
Q 25.296875 52.984375 20.140625 49.953125 
Q 14.984375 46.921875 10.890625 45.40625 
L 10.890625 53.90625 
Q 18.265625 57.375 23.78125 62.296875 
Q 29.296875 67.234375 31.59375 71.875 
L 37.25 71.875 
z
" id="ArialMT-49"/>
       </defs>
       <use xlink:href="#ArialMT-49"/>
       <use x="55.615234" xlink:href="#ArialMT-48"/>
       <use x="111.230469" xlink:href="#ArialMT-48"/>
      </g>
     </g>
    </g>
   </g>
   <g id="matplotlib.axis_2">
    <g id="ytick_1">
     <g id="line2d_10">
      <path clip-path="url(#p2db7ea8d40)" d="M 112.078594 275.2725 
L 469.198594 275.2725 
" style="fill:none;stroke:#ffffff;stroke-linecap:round;"/>
     </g>
     <g id="text_10">
      <!-- nan -->
      <g style="fill:#262626;" transform="translate(84.2275 279.209297)scale(0.11 -0.11)">
       <defs>
        <path d="M 6.59375 0 
L 6.59375 51.859375 
L 14.5 51.859375 
L 14.5 44.484375 
Q 20.21875 53.03125 31 53.03125 
Q 35.6875 53.03125 39.625 51.34375 
Q 43.5625 49.65625 45.515625 46.921875 
Q 47.46875 44.1875 48.25 40.4375 
Q 48.734375 37.984375 48.734375 31.890625 
L 48.734375 0 
L 39.9375 0 
L 39.9375 31.546875 
Q 39.9375 36.921875 38.90625 39.578125 
Q 37.890625 42.234375 35.28125 43.8125 
Q 32.671875 45.40625 29.15625 45.40625 
Q 23.53125 45.40625 19.453125 41.84375 
Q 15.375 38.28125 15.375 28.328125 
L 15.375 0 
z
" id="ArialMT-110"/>
        <path d="M 40.4375 6.390625 
Q 35.546875 2.25 31.03125 0.53125 
Q 26.515625 -1.171875 21.34375 -1.171875 
Q 12.796875 -1.171875 8.203125 3 
Q 3.609375 7.171875 3.609375 13.671875 
Q 3.609375 17.484375 5.34375 20.625 
Q 7.078125 23.78125 9.890625 25.6875 
Q 12.703125 27.59375 16.21875 28.5625 
Q 18.796875 29.25 24.03125 29.890625 
Q 34.671875 31.15625 39.703125 32.90625 
Q 39.75 34.71875 39.75 35.203125 
Q 39.75 40.578125 37.25 42.78125 
Q 33.890625 45.75 27.25 45.75 
Q 21.046875 45.75 18.09375 43.578125 
Q 15.140625 41.40625 13.71875 35.890625 
L 5.125 37.0625 
Q 6.296875 42.578125 8.984375 45.96875 
Q 11.671875 49.359375 16.75 51.1875 
Q 21.828125 53.03125 28.515625 53.03125 
Q 35.15625 53.03125 39.296875 51.46875 
Q 43.453125 49.90625 45.40625 47.53125 
Q 47.359375 45.171875 48.140625 41.546875 
Q 48.578125 39.3125 48.578125 33.453125 
L 48.578125 21.734375 
Q 48.578125 9.46875 49.140625 6.21875 
Q 49.703125 2.984375 51.375 0 
L 42.1875 0 
Q 40.828125 2.734375 40.4375 6.390625 
z
M 39.703125 26.03125 
Q 34.90625 24.078125 25.34375 22.703125 
Q 19.921875 21.921875 17.671875 20.9375 
Q 15.4375 19.96875 14.203125 18.09375 
Q 12.984375 16.21875 12.984375 13.921875 
Q 12.984375 10.40625 15.640625 8.0625 
Q 18.3125 5.71875 23.4375 5.71875 
Q 28.515625 5.71875 32.46875 7.9375 
Q 36.421875 10.15625 38.28125 14.015625 
Q 39.703125 17 39.703125 22.796875 
z
" id="ArialMT-97"/>
       </defs>
       <use xlink:href="#ArialMT-110"/>
       <use x="55.615234" xlink:href="#ArialMT-97"/>
       <use x="111.230469" xlink:href="#ArialMT-110"/>
      </g>
     </g>
    </g>
    <g id="ytick_2">
     <g id="line2d_11">
      <path clip-path="url(#p2db7ea8d40)" d="M 112.078594 242.6565 
L 469.198594 242.6565 
" style="fill:none;stroke:#ffffff;stroke-linecap:round;"/>
     </g>
     <g id="text_11">
      <!-- illiterate -->
      <g style="fill:#262626;" transform="translate(64.676719 246.593297)scale(0.11 -0.11)">
       <defs>
        <path d="M 6.640625 61.46875 
L 6.640625 71.578125 
L 15.4375 71.578125 
L 15.4375 61.46875 
z
M 6.640625 0 
L 6.640625 51.859375 
L 15.4375 51.859375 
L 15.4375 0 
z
" id="ArialMT-105"/>
        <path d="M 6.390625 0 
L 6.390625 71.578125 
L 15.1875 71.578125 
L 15.1875 0 
z
" id="ArialMT-108"/>
        <path d="M 25.78125 7.859375 
L 27.046875 0.09375 
Q 23.34375 -0.6875 20.40625 -0.6875 
Q 15.625 -0.6875 12.984375 0.828125 
Q 10.359375 2.34375 9.28125 4.8125 
Q 8.203125 7.28125 8.203125 15.1875 
L 8.203125 45.015625 
L 1.765625 45.015625 
L 1.765625 51.859375 
L 8.203125 51.859375 
L 8.203125 64.703125 
L 16.9375 69.96875 
L 16.9375 51.859375 
L 25.78125 51.859375 
L 25.78125 45.015625 
L 16.9375 45.015625 
L 16.9375 14.703125 
Q 16.9375 10.9375 17.40625 9.859375 
Q 17.875 8.796875 18.921875 8.15625 
Q 19.96875 7.515625 21.921875 7.515625 
Q 23.390625 7.515625 25.78125 7.859375 
z
" id="ArialMT-116"/>
        <path d="M 42.09375 16.703125 
L 51.171875 15.578125 
Q 49.03125 7.625 43.21875 3.21875 
Q 37.40625 -1.171875 28.375 -1.171875 
Q 17 -1.171875 10.328125 5.828125 
Q 3.65625 12.84375 3.65625 25.484375 
Q 3.65625 38.578125 10.390625 45.796875 
Q 17.140625 53.03125 27.875 53.03125 
Q 38.28125 53.03125 44.875 45.953125 
Q 51.46875 38.875 51.46875 26.03125 
Q 51.46875 25.25 51.421875 23.6875 
L 12.75 23.6875 
Q 13.234375 15.140625 17.578125 10.59375 
Q 21.921875 6.0625 28.421875 6.0625 
Q 33.25 6.0625 36.671875 8.59375 
Q 40.09375 11.140625 42.09375 16.703125 
z
M 13.234375 30.90625 
L 42.1875 30.90625 
Q 41.609375 37.453125 38.875 40.71875 
Q 34.671875 45.796875 27.984375 45.796875 
Q 21.921875 45.796875 17.796875 41.75 
Q 13.671875 37.703125 13.234375 30.90625 
z
" id="ArialMT-101"/>
        <path d="M 6.5 0 
L 6.5 51.859375 
L 14.40625 51.859375 
L 14.40625 44 
Q 17.4375 49.515625 20 51.265625 
Q 22.5625 53.03125 25.640625 53.03125 
Q 30.078125 53.03125 34.671875 50.203125 
L 31.640625 42.046875 
Q 28.421875 43.953125 25.203125 43.953125 
Q 22.3125 43.953125 20.015625 42.21875 
Q 17.71875 40.484375 16.75 37.40625 
Q 15.28125 32.71875 15.28125 27.15625 
L 15.28125 0 
z
" id="ArialMT-114"/>
       </defs>
       <use xlink:href="#ArialMT-105"/>
       <use x="22.216797" xlink:href="#ArialMT-108"/>
       <use x="44.433594" xlink:href="#ArialMT-108"/>
       <use x="66.650391" xlink:href="#ArialMT-105"/>
       <use x="88.867188" xlink:href="#ArialMT-116"/>
       <use x="116.650391" xlink:href="#ArialMT-101"/>
       <use x="172.265625" xlink:href="#ArialMT-114"/>
       <use x="205.566406" xlink:href="#ArialMT-97"/>
       <use x="261.181641" xlink:href="#ArialMT-116"/>
       <use x="288.964844" xlink:href="#ArialMT-101"/>
      </g>
     </g>
    </g>
    <g id="ytick_3">
     <g id="line2d_12">
      <path clip-path="url(#p2db7ea8d40)" d="M 112.078594 210.0405 
L 469.198594 210.0405 
" style="fill:none;stroke:#ffffff;stroke-linecap:round;"/>
     </g>
     <g id="text_12">
      <!-- basic.4y -->
      <g style="fill:#262626;" transform="translate(62.2275 213.977297)scale(0.11 -0.11)">
       <defs>
        <path d="M 14.703125 0 
L 6.546875 0 
L 6.546875 71.578125 
L 15.328125 71.578125 
L 15.328125 46.046875 
Q 20.90625 53.03125 29.546875 53.03125 
Q 34.328125 53.03125 38.59375 51.09375 
Q 42.875 49.171875 45.625 45.671875 
Q 48.390625 42.1875 49.953125 37.25 
Q 51.515625 32.328125 51.515625 26.703125 
Q 51.515625 13.375 44.921875 6.09375 
Q 38.328125 -1.171875 29.109375 -1.171875 
Q 19.921875 -1.171875 14.703125 6.5 
z
M 14.59375 26.3125 
Q 14.59375 17 17.140625 12.84375 
Q 21.296875 6.0625 28.375 6.0625 
Q 34.125 6.0625 38.328125 11.0625 
Q 42.53125 16.0625 42.53125 25.984375 
Q 42.53125 36.140625 38.5 40.96875 
Q 34.46875 45.796875 28.765625 45.796875 
Q 23 45.796875 18.796875 40.796875 
Q 14.59375 35.796875 14.59375 26.3125 
z
" id="ArialMT-98"/>
        <path d="M 3.078125 15.484375 
L 11.765625 16.84375 
Q 12.5 11.625 15.84375 8.84375 
Q 19.1875 6.0625 25.203125 6.0625 
Q 31.25 6.0625 34.171875 8.515625 
Q 37.109375 10.984375 37.109375 14.3125 
Q 37.109375 17.28125 34.515625 19 
Q 32.71875 20.171875 25.53125 21.96875 
Q 15.875 24.421875 12.140625 26.203125 
Q 8.40625 27.984375 6.46875 31.125 
Q 4.546875 34.28125 4.546875 38.09375 
Q 4.546875 41.546875 6.125 44.5 
Q 7.71875 47.46875 10.453125 49.421875 
Q 12.5 50.921875 16.03125 51.96875 
Q 19.578125 53.03125 23.640625 53.03125 
Q 29.734375 53.03125 34.34375 51.265625 
Q 38.96875 49.515625 41.15625 46.5 
Q 43.359375 43.5 44.1875 38.484375 
L 35.59375 37.3125 
Q 35.015625 41.3125 32.203125 43.546875 
Q 29.390625 45.796875 24.265625 45.796875 
Q 18.21875 45.796875 15.625 43.796875 
Q 13.03125 41.796875 13.03125 39.109375 
Q 13.03125 37.40625 14.109375 36.03125 
Q 15.1875 34.625 17.484375 33.6875 
Q 18.796875 33.203125 25.25 31.453125 
Q 34.578125 28.953125 38.25 27.359375 
Q 41.9375 25.78125 44.03125 22.75 
Q 46.140625 19.734375 46.140625 15.234375 
Q 46.140625 10.84375 43.578125 6.953125 
Q 41.015625 3.078125 36.171875 0.953125 
Q 31.34375 -1.171875 25.25 -1.171875 
Q 15.140625 -1.171875 9.84375 3.03125 
Q 4.546875 7.234375 3.078125 15.484375 
z
" id="ArialMT-115"/>
        <path d="M 40.4375 19 
L 49.078125 17.875 
Q 47.65625 8.9375 41.8125 3.875 
Q 35.984375 -1.171875 27.484375 -1.171875 
Q 16.84375 -1.171875 10.375 5.78125 
Q 3.90625 12.75 3.90625 25.734375 
Q 3.90625 34.125 6.6875 40.421875 
Q 9.46875 46.734375 15.15625 49.875 
Q 20.84375 53.03125 27.546875 53.03125 
Q 35.984375 53.03125 41.359375 48.75 
Q 46.734375 44.484375 48.25 36.625 
L 39.703125 35.296875 
Q 38.484375 40.53125 35.375 43.15625 
Q 32.28125 45.796875 27.875 45.796875 
Q 21.234375 45.796875 17.078125 41.03125 
Q 12.9375 36.28125 12.9375 25.984375 
Q 12.9375 15.53125 16.9375 10.796875 
Q 20.953125 6.0625 27.390625 6.0625 
Q 32.5625 6.0625 36.03125 9.234375 
Q 39.5 12.40625 40.4375 19 
z
" id="ArialMT-99"/>
        <path d="M 9.078125 0 
L 9.078125 10.015625 
L 19.09375 10.015625 
L 19.09375 0 
z
" id="ArialMT-46"/>
        <path d="M 6.203125 -19.96875 
L 5.21875 -11.71875 
Q 8.109375 -12.5 10.25 -12.5 
Q 13.1875 -12.5 14.9375 -11.515625 
Q 16.703125 -10.546875 17.828125 -8.796875 
Q 18.65625 -7.46875 20.515625 -2.25 
Q 20.75 -1.515625 21.296875 -0.09375 
L 1.609375 51.859375 
L 11.078125 51.859375 
L 21.875 21.828125 
Q 23.96875 16.109375 25.640625 9.8125 
Q 27.15625 15.875 29.25 21.625 
L 40.328125 51.859375 
L 49.125 51.859375 
L 29.390625 -0.875 
Q 26.21875 -9.421875 24.46875 -12.640625 
Q 22.125 -17 19.09375 -19.015625 
Q 16.0625 -21.046875 11.859375 -21.046875 
Q 9.328125 -21.046875 6.203125 -19.96875 
z
" id="ArialMT-121"/>
       </defs>
       <use xlink:href="#ArialMT-98"/>
       <use x="55.615234" xlink:href="#ArialMT-97"/>
       <use x="111.230469" xlink:href="#ArialMT-115"/>
       <use x="161.230469" xlink:href="#ArialMT-105"/>
       <use x="183.447266" xlink:href="#ArialMT-99"/>
       <use x="233.447266" xlink:href="#ArialMT-46"/>
       <use x="261.230469" xlink:href="#ArialMT-52"/>
       <use x="316.845703" xlink:href="#ArialMT-121"/>
      </g>
     </g>
    </g>
    <g id="ytick_4">
     <g id="line2d_13">
      <path clip-path="url(#p2db7ea8d40)" d="M 112.078594 177.4245 
L 469.198594 177.4245 
" style="fill:none;stroke:#ffffff;stroke-linecap:round;"/>
     </g>
     <g id="text_13">
      <!-- basic.6y -->
      <g style="fill:#262626;" transform="translate(62.2275 181.377625)scale(0.11 -0.11)">
       <use xlink:href="#ArialMT-98"/>
       <use x="55.615234" xlink:href="#ArialMT-97"/>
       <use x="111.230469" xlink:href="#ArialMT-115"/>
       <use x="161.230469" xlink:href="#ArialMT-105"/>
       <use x="183.447266" xlink:href="#ArialMT-99"/>
       <use x="233.447266" xlink:href="#ArialMT-46"/>
       <use x="261.230469" xlink:href="#ArialMT-54"/>
       <use x="316.845703" xlink:href="#ArialMT-121"/>
      </g>
     </g>
    </g>
    <g id="ytick_5">
     <g id="line2d_14">
      <path clip-path="url(#p2db7ea8d40)" d="M 112.078594 144.8085 
L 469.198594 144.8085 
" style="fill:none;stroke:#ffffff;stroke-linecap:round;"/>
     </g>
     <g id="text_14">
      <!-- basic.9y -->
      <g style="fill:#262626;" transform="translate(62.2275 148.761625)scale(0.11 -0.11)">
       <use xlink:href="#ArialMT-98"/>
       <use x="55.615234" xlink:href="#ArialMT-97"/>
       <use x="111.230469" xlink:href="#ArialMT-115"/>
       <use x="161.230469" xlink:href="#ArialMT-105"/>
       <use x="183.447266" xlink:href="#ArialMT-99"/>
       <use x="233.447266" xlink:href="#ArialMT-46"/>
       <use x="261.230469" xlink:href="#ArialMT-57"/>
       <use x="316.845703" xlink:href="#ArialMT-121"/>
      </g>
     </g>
    </g>
    <g id="ytick_6">
     <g id="line2d_15">
      <path clip-path="url(#p2db7ea8d40)" d="M 112.078594 112.1925 
L 469.198594 112.1925 
" style="fill:none;stroke:#ffffff;stroke-linecap:round;"/>
     </g>
     <g id="text_15">
      <!-- high.school -->
      <g style="fill:#262626;" transform="translate(46.932344 116.129297)scale(0.11 -0.11)">
       <defs>
        <path d="M 6.59375 0 
L 6.59375 71.578125 
L 15.375 71.578125 
L 15.375 45.90625 
Q 21.53125 53.03125 30.90625 53.03125 
Q 36.671875 53.03125 40.921875 50.75 
Q 45.171875 48.484375 47 44.484375 
Q 48.828125 40.484375 48.828125 32.859375 
L 48.828125 0 
L 40.046875 0 
L 40.046875 32.859375 
Q 40.046875 39.453125 37.1875 42.453125 
Q 34.328125 45.453125 29.109375 45.453125 
Q 25.203125 45.453125 21.75 43.421875 
Q 18.3125 41.40625 16.84375 37.9375 
Q 15.375 34.46875 15.375 28.375 
L 15.375 0 
z
" id="ArialMT-104"/>
        <path d="M 4.984375 -4.296875 
L 13.53125 -5.5625 
Q 14.0625 -9.515625 16.5 -11.328125 
Q 19.78125 -13.765625 25.4375 -13.765625 
Q 31.546875 -13.765625 34.859375 -11.328125 
Q 38.1875 -8.890625 39.359375 -4.5 
Q 40.046875 -1.8125 39.984375 6.78125 
Q 34.234375 0 25.640625 0 
Q 14.9375 0 9.078125 7.71875 
Q 3.21875 15.4375 3.21875 26.21875 
Q 3.21875 33.640625 5.90625 39.90625 
Q 8.59375 46.1875 13.6875 49.609375 
Q 18.796875 53.03125 25.6875 53.03125 
Q 34.859375 53.03125 40.828125 45.609375 
L 40.828125 51.859375 
L 48.921875 51.859375 
L 48.921875 7.03125 
Q 48.921875 -5.078125 46.453125 -10.125 
Q 44 -15.1875 38.640625 -18.109375 
Q 33.296875 -21.046875 25.484375 -21.046875 
Q 16.21875 -21.046875 10.5 -16.875 
Q 4.78125 -12.703125 4.984375 -4.296875 
z
M 12.25 26.859375 
Q 12.25 16.65625 16.296875 11.96875 
Q 20.359375 7.28125 26.46875 7.28125 
Q 32.515625 7.28125 36.609375 11.9375 
Q 40.71875 16.609375 40.71875 26.5625 
Q 40.71875 36.078125 36.5 40.90625 
Q 32.28125 45.75 26.3125 45.75 
Q 20.453125 45.75 16.34375 40.984375 
Q 12.25 36.234375 12.25 26.859375 
z
" id="ArialMT-103"/>
        <path d="M 3.328125 25.921875 
Q 3.328125 40.328125 11.328125 47.265625 
Q 18.015625 53.03125 27.640625 53.03125 
Q 38.328125 53.03125 45.109375 46.015625 
Q 51.90625 39.015625 51.90625 26.65625 
Q 51.90625 16.65625 48.90625 10.90625 
Q 45.90625 5.171875 40.15625 2 
Q 34.421875 -1.171875 27.640625 -1.171875 
Q 16.75 -1.171875 10.03125 5.8125 
Q 3.328125 12.796875 3.328125 25.921875 
z
M 12.359375 25.921875 
Q 12.359375 15.96875 16.703125 11.015625 
Q 21.046875 6.0625 27.640625 6.0625 
Q 34.1875 6.0625 38.53125 11.03125 
Q 42.875 16.015625 42.875 26.21875 
Q 42.875 35.84375 38.5 40.796875 
Q 34.125 45.75 27.640625 45.75 
Q 21.046875 45.75 16.703125 40.8125 
Q 12.359375 35.890625 12.359375 25.921875 
z
" id="ArialMT-111"/>
       </defs>
       <use xlink:href="#ArialMT-104"/>
       <use x="55.615234" xlink:href="#ArialMT-105"/>
       <use x="77.832031" xlink:href="#ArialMT-103"/>
       <use x="133.447266" xlink:href="#ArialMT-104"/>
       <use x="189.0625" xlink:href="#ArialMT-46"/>
       <use x="216.845703" xlink:href="#ArialMT-115"/>
       <use x="266.845703" xlink:href="#ArialMT-99"/>
       <use x="316.845703" xlink:href="#ArialMT-104"/>
       <use x="372.460938" xlink:href="#ArialMT-111"/>
       <use x="428.076172" xlink:href="#ArialMT-111"/>
       <use x="483.691406" xlink:href="#ArialMT-108"/>
      </g>
     </g>
    </g>
    <g id="ytick_7">
     <g id="line2d_16">
      <path clip-path="url(#p2db7ea8d40)" d="M 112.078594 79.5765 
L 469.198594 79.5765 
" style="fill:none;stroke:#ffffff;stroke-linecap:round;"/>
     </g>
     <g id="text_16">
      <!-- professional.course -->
      <g style="fill:#262626;" transform="translate(7.2 83.580328)scale(0.11 -0.11)">
       <defs>
        <path d="M 6.59375 -19.875 
L 6.59375 51.859375 
L 14.59375 51.859375 
L 14.59375 45.125 
Q 17.4375 49.078125 21 51.046875 
Q 24.5625 53.03125 29.640625 53.03125 
Q 36.28125 53.03125 41.359375 49.609375 
Q 46.4375 46.1875 49.015625 39.953125 
Q 51.609375 33.734375 51.609375 26.3125 
Q 51.609375 18.359375 48.75 11.984375 
Q 45.90625 5.609375 40.453125 2.21875 
Q 35.015625 -1.171875 29 -1.171875 
Q 24.609375 -1.171875 21.109375 0.6875 
Q 17.625 2.546875 15.375 5.375 
L 15.375 -19.875 
z
M 14.546875 25.640625 
Q 14.546875 15.625 18.59375 10.84375 
Q 22.65625 6.0625 28.421875 6.0625 
Q 34.28125 6.0625 38.453125 11.015625 
Q 42.625 15.96875 42.625 26.375 
Q 42.625 36.28125 38.546875 41.203125 
Q 34.46875 46.140625 28.8125 46.140625 
Q 23.1875 46.140625 18.859375 40.890625 
Q 14.546875 35.640625 14.546875 25.640625 
z
" id="ArialMT-112"/>
        <path d="M 8.6875 0 
L 8.6875 45.015625 
L 0.921875 45.015625 
L 0.921875 51.859375 
L 8.6875 51.859375 
L 8.6875 57.375 
Q 8.6875 62.59375 9.625 65.140625 
Q 10.890625 68.5625 14.078125 70.671875 
Q 17.28125 72.796875 23.046875 72.796875 
Q 26.765625 72.796875 31.25 71.921875 
L 29.9375 64.265625 
Q 27.203125 64.75 24.75 64.75 
Q 20.75 64.75 19.09375 63.03125 
Q 17.4375 61.328125 17.4375 56.640625 
L 17.4375 51.859375 
L 27.546875 51.859375 
L 27.546875 45.015625 
L 17.4375 45.015625 
L 17.4375 0 
z
" id="ArialMT-102"/>
        <path d="M 40.578125 0 
L 40.578125 7.625 
Q 34.515625 -1.171875 24.125 -1.171875 
Q 19.53125 -1.171875 15.546875 0.578125 
Q 11.578125 2.34375 9.640625 5 
Q 7.71875 7.671875 6.9375 11.53125 
Q 6.390625 14.109375 6.390625 19.734375 
L 6.390625 51.859375 
L 15.1875 51.859375 
L 15.1875 23.09375 
Q 15.1875 16.21875 15.71875 13.8125 
Q 16.546875 10.359375 19.234375 8.375 
Q 21.921875 6.390625 25.875 6.390625 
Q 29.828125 6.390625 33.296875 8.421875 
Q 36.765625 10.453125 38.203125 13.9375 
Q 39.65625 17.4375 39.65625 24.078125 
L 39.65625 51.859375 
L 48.4375 51.859375 
L 48.4375 0 
z
" id="ArialMT-117"/>
       </defs>
       <use xlink:href="#ArialMT-112"/>
       <use x="55.615234" xlink:href="#ArialMT-114"/>
       <use x="88.916016" xlink:href="#ArialMT-111"/>
       <use x="144.53125" xlink:href="#ArialMT-102"/>
       <use x="172.314453" xlink:href="#ArialMT-101"/>
       <use x="227.929688" xlink:href="#ArialMT-115"/>
       <use x="277.929688" xlink:href="#ArialMT-115"/>
       <use x="327.929688" xlink:href="#ArialMT-105"/>
       <use x="350.146484" xlink:href="#ArialMT-111"/>
       <use x="405.761719" xlink:href="#ArialMT-110"/>
       <use x="461.376953" xlink:href="#ArialMT-97"/>
       <use x="516.992188" xlink:href="#ArialMT-108"/>
       <use x="539.208984" xlink:href="#ArialMT-46"/>
       <use x="566.992188" xlink:href="#ArialMT-99"/>
       <use x="616.992188" xlink:href="#ArialMT-111"/>
       <use x="672.607422" xlink:href="#ArialMT-117"/>
       <use x="728.222656" xlink:href="#ArialMT-114"/>
       <use x="761.523438" xlink:href="#ArialMT-115"/>
       <use x="811.523438" xlink:href="#ArialMT-101"/>
      </g>
     </g>
    </g>
    <g id="ytick_8">
     <g id="line2d_17">
      <path clip-path="url(#p2db7ea8d40)" d="M 112.078594 46.9605 
L 469.198594 46.9605 
" style="fill:none;stroke:#ffffff;stroke-linecap:round;"/>
     </g>
     <g id="text_17">
      <!-- university.degree -->
      <g style="fill:#262626;" transform="translate(19.628281 50.897297)scale(0.11 -0.11)">
       <defs>
        <path d="M 21 0 
L 1.265625 51.859375 
L 10.546875 51.859375 
L 21.6875 20.796875 
Q 23.484375 15.765625 25 10.359375 
Q 26.171875 14.453125 28.265625 20.21875 
L 39.796875 51.859375 
L 48.828125 51.859375 
L 29.203125 0 
z
" id="ArialMT-118"/>
        <path d="M 40.234375 0 
L 40.234375 6.546875 
Q 35.296875 -1.171875 25.734375 -1.171875 
Q 19.53125 -1.171875 14.328125 2.25 
Q 9.125 5.671875 6.265625 11.796875 
Q 3.421875 17.921875 3.421875 25.875 
Q 3.421875 33.640625 6 39.96875 
Q 8.59375 46.296875 13.765625 49.65625 
Q 18.953125 53.03125 25.34375 53.03125 
Q 30.03125 53.03125 33.6875 51.046875 
Q 37.359375 49.078125 39.65625 45.90625 
L 39.65625 71.578125 
L 48.390625 71.578125 
L 48.390625 0 
z
M 12.453125 25.875 
Q 12.453125 15.921875 16.640625 10.984375 
Q 20.84375 6.0625 26.5625 6.0625 
Q 32.328125 6.0625 36.34375 10.765625 
Q 40.375 15.484375 40.375 25.140625 
Q 40.375 35.796875 36.265625 40.765625 
Q 32.171875 45.75 26.171875 45.75 
Q 20.3125 45.75 16.375 40.96875 
Q 12.453125 36.1875 12.453125 25.875 
z
" id="ArialMT-100"/>
       </defs>
       <use xlink:href="#ArialMT-117"/>
       <use x="55.615234" xlink:href="#ArialMT-110"/>
       <use x="111.230469" xlink:href="#ArialMT-105"/>
       <use x="133.447266" xlink:href="#ArialMT-118"/>
       <use x="183.447266" xlink:href="#ArialMT-101"/>
       <use x="239.0625" xlink:href="#ArialMT-114"/>
       <use x="272.363281" xlink:href="#ArialMT-115"/>
       <use x="322.363281" xlink:href="#ArialMT-105"/>
       <use x="344.580078" xlink:href="#ArialMT-116"/>
       <use x="372.363281" xlink:href="#ArialMT-121"/>
       <use x="414.988281" xlink:href="#ArialMT-46"/>
       <use x="442.771484" xlink:href="#ArialMT-100"/>
       <use x="498.386719" xlink:href="#ArialMT-101"/>
       <use x="554.001953" xlink:href="#ArialMT-103"/>
       <use x="609.617188" xlink:href="#ArialMT-114"/>
       <use x="642.917969" xlink:href="#ArialMT-101"/>
       <use x="698.533203" xlink:href="#ArialMT-101"/>
      </g>
     </g>
    </g>
   </g>
   <g id="line2d_18">
    <path clip-path="url(#p2db7ea8d40)" d="M 200.456776 283.4265 
L 200.456776 267.1185 
L 268.594149 267.1185 
L 268.594149 283.4265 
L 200.456776 283.4265 
" style="fill:none;stroke:#4c72b0;stroke-linecap:round;"/>
   </g>
   <g id="line2d_19">
    <path clip-path="url(#p2db7ea8d40)" d="M 200.456776 275.2725 
L 128.311321 275.2725 
" style="fill:none;stroke:#4c72b0;stroke-linecap:round;"/>
   </g>
   <g id="line2d_20">
    <path clip-path="url(#p2db7ea8d40)" d="M 268.594149 275.2725 
L 368.79617 275.2725 
" style="fill:none;stroke:#4c72b0;stroke-linecap:round;"/>
   </g>
   <g id="line2d_21">
    <path clip-path="url(#p2db7ea8d40)" d="M 128.311321 279.3495 
L 128.311321 271.1955 
" style="fill:none;stroke:#1a1a1a;stroke-linecap:round;"/>
   </g>
   <g id="line2d_22">
    <path clip-path="url(#p2db7ea8d40)" d="M 368.79617 279.3495 
L 368.79617 271.1955 
" style="fill:none;stroke:#1a1a1a;stroke-linecap:round;"/>
   </g>
   <g id="line2d_23">
    <defs>
     <path d="M 0 1.5 
C 0.397805 1.5 0.77937 1.341951 1.06066 1.06066 
C 1.341951 0.77937 1.5 0.397805 1.5 0 
C 1.5 -0.397805 1.341951 -0.77937 1.06066 -1.06066 
C 0.77937 -1.341951 0.397805 -1.5 0 -1.5 
C -0.397805 -1.5 -0.77937 -1.341951 -1.06066 -1.06066 
C -1.341951 -0.77937 -1.5 -0.397805 -1.5 0 
C -1.5 0.397805 -1.341951 0.77937 -1.06066 1.06066 
C -0.77937 1.341951 -0.397805 1.5 0 1.5 
z
" id="me6d63dc41e" style="stroke:#000000;"/>
    </defs>
    <g clip-path="url(#p2db7ea8d40)">
     <use style="fill-opacity:0;stroke:#000000;" x="388.836574" xlink:href="#me6d63dc41e" y="275.2725"/>
     <use style="fill-opacity:0;stroke:#000000;" x="384.828493" xlink:href="#me6d63dc41e" y="275.2725"/>
     <use style="fill-opacity:0;stroke:#000000;" x="376.812331" xlink:href="#me6d63dc41e" y="275.2725"/>
     <use style="fill-opacity:0;stroke:#000000;" x="392.844654" xlink:href="#me6d63dc41e" y="275.2725"/>
     <use style="fill-opacity:0;stroke:#000000;" x="372.80425" xlink:href="#me6d63dc41e" y="275.2725"/>
     <use style="fill-opacity:0;stroke:#000000;" x="372.80425" xlink:href="#me6d63dc41e" y="275.2725"/>
     <use style="fill-opacity:0;stroke:#000000;" x="392.844654" xlink:href="#me6d63dc41e" y="275.2725"/>
     <use style="fill-opacity:0;stroke:#000000;" x="384.828493" xlink:href="#me6d63dc41e" y="275.2725"/>
     <use style="fill-opacity:0;stroke:#000000;" x="384.828493" xlink:href="#me6d63dc41e" y="275.2725"/>
     <use style="fill-opacity:0;stroke:#000000;" x="380.820412" xlink:href="#me6d63dc41e" y="275.2725"/>
     <use style="fill-opacity:0;stroke:#000000;" x="372.80425" xlink:href="#me6d63dc41e" y="275.2725"/>
     <use style="fill-opacity:0;stroke:#000000;" x="428.917382" xlink:href="#me6d63dc41e" y="275.2725"/>
     <use style="fill-opacity:0;stroke:#000000;" x="428.917382" xlink:href="#me6d63dc41e" y="275.2725"/>
     <use style="fill-opacity:0;stroke:#000000;" x="372.80425" xlink:href="#me6d63dc41e" y="275.2725"/>
     <use style="fill-opacity:0;stroke:#000000;" x="372.80425" xlink:href="#me6d63dc41e" y="275.2725"/>
     <use style="fill-opacity:0;stroke:#000000;" x="372.80425" xlink:href="#me6d63dc41e" y="275.2725"/>
     <use style="fill-opacity:0;stroke:#000000;" x="372.80425" xlink:href="#me6d63dc41e" y="275.2725"/>
     <use style="fill-opacity:0;stroke:#000000;" x="428.917382" xlink:href="#me6d63dc41e" y="275.2725"/>
     <use style="fill-opacity:0;stroke:#000000;" x="428.917382" xlink:href="#me6d63dc41e" y="275.2725"/>
     <use style="fill-opacity:0;stroke:#000000;" x="396.852735" xlink:href="#me6d63dc41e" y="275.2725"/>
     <use style="fill-opacity:0;stroke:#000000;" x="404.868897" xlink:href="#me6d63dc41e" y="275.2725"/>
     <use style="fill-opacity:0;stroke:#000000;" x="404.868897" xlink:href="#me6d63dc41e" y="275.2725"/>
    </g>
   </g>
   <g id="line2d_24">
    <path clip-path="url(#p2db7ea8d40)" d="M 230.517382 250.8105 
L 230.517382 234.5025 
L 273.60425 234.5025 
L 273.60425 250.8105 
L 230.517382 250.8105 
" style="fill:none;stroke:#4c72b0;stroke-linecap:round;"/>
   </g>
   <g id="line2d_25">
    <path clip-path="url(#p2db7ea8d40)" d="M 230.517382 242.6565 
L 196.448695 242.6565 
" style="fill:none;stroke:#4c72b0;stroke-linecap:round;"/>
   </g>
   <g id="line2d_26">
    <path clip-path="url(#p2db7ea8d40)" d="M 273.60425 242.6565 
L 300.658796 242.6565 
" style="fill:none;stroke:#4c72b0;stroke-linecap:round;"/>
   </g>
   <g id="line2d_27">
    <path clip-path="url(#p2db7ea8d40)" d="M 196.448695 246.7335 
L 196.448695 238.5795 
" style="fill:none;stroke:#1a1a1a;stroke-linecap:round;"/>
   </g>
   <g id="line2d_28">
    <path clip-path="url(#p2db7ea8d40)" d="M 300.658796 246.7335 
L 300.658796 238.5795 
" style="fill:none;stroke:#1a1a1a;stroke-linecap:round;"/>
   </g>
   <g id="line2d_29">
    <g clip-path="url(#p2db7ea8d40)">
     <use style="fill-opacity:0;stroke:#000000;" x="380.820412" xlink:href="#me6d63dc41e" y="242.6565"/>
    </g>
   </g>
   <g id="line2d_30">
    <path clip-path="url(#p2db7ea8d40)" d="M 216.489099 218.1945 
L 216.489099 201.8865 
L 280.618392 201.8865 
L 280.618392 218.1945 
L 216.489099 218.1945 
" style="fill:none;stroke:#4c72b0;stroke-linecap:round;"/>
   </g>
   <g id="line2d_31">
    <path clip-path="url(#p2db7ea8d40)" d="M 216.489099 210.0405 
L 132.319402 210.0405 
" style="fill:none;stroke:#4c72b0;stroke-linecap:round;"/>
   </g>
   <g id="line2d_32">
    <path clip-path="url(#p2db7ea8d40)" d="M 280.618392 210.0405 
L 376.812331 210.0405 
" style="fill:none;stroke:#4c72b0;stroke-linecap:round;"/>
   </g>
   <g id="line2d_33">
    <path clip-path="url(#p2db7ea8d40)" d="M 132.319402 214.1175 
L 132.319402 205.9635 
" style="fill:none;stroke:#1a1a1a;stroke-linecap:round;"/>
   </g>
   <g id="line2d_34">
    <path clip-path="url(#p2db7ea8d40)" d="M 376.812331 214.1175 
L 376.812331 205.9635 
" style="fill:none;stroke:#1a1a1a;stroke-linecap:round;"/>
   </g>
   <g id="line2d_35">
    <g clip-path="url(#p2db7ea8d40)">
     <use style="fill-opacity:0;stroke:#000000;" x="412.885058" xlink:href="#me6d63dc41e" y="210.0405"/>
     <use style="fill-opacity:0;stroke:#000000;" x="412.885058" xlink:href="#me6d63dc41e" y="210.0405"/>
     <use style="fill-opacity:0;stroke:#000000;" x="412.885058" xlink:href="#me6d63dc41e" y="210.0405"/>
     <use style="fill-opacity:0;stroke:#000000;" x="412.885058" xlink:href="#me6d63dc41e" y="210.0405"/>
     <use style="fill-opacity:0;stroke:#000000;" x="412.885058" xlink:href="#me6d63dc41e" y="210.0405"/>
     <use style="fill-opacity:0;stroke:#000000;" x="412.885058" xlink:href="#me6d63dc41e" y="210.0405"/>
     <use style="fill-opacity:0;stroke:#000000;" x="412.885058" xlink:href="#me6d63dc41e" y="210.0405"/>
     <use style="fill-opacity:0;stroke:#000000;" x="412.885058" xlink:href="#me6d63dc41e" y="210.0405"/>
     <use style="fill-opacity:0;stroke:#000000;" x="412.885058" xlink:href="#me6d63dc41e" y="210.0405"/>
     <use style="fill-opacity:0;stroke:#000000;" x="412.885058" xlink:href="#me6d63dc41e" y="210.0405"/>
     <use style="fill-opacity:0;stroke:#000000;" x="412.885058" xlink:href="#me6d63dc41e" y="210.0405"/>
     <use style="fill-opacity:0;stroke:#000000;" x="412.885058" xlink:href="#me6d63dc41e" y="210.0405"/>
     <use style="fill-opacity:0;stroke:#000000;" x="412.885058" xlink:href="#me6d63dc41e" y="210.0405"/>
     <use style="fill-opacity:0;stroke:#000000;" x="380.820412" xlink:href="#me6d63dc41e" y="210.0405"/>
     <use style="fill-opacity:0;stroke:#000000;" x="380.820412" xlink:href="#me6d63dc41e" y="210.0405"/>
     <use style="fill-opacity:0;stroke:#000000;" x="400.860816" xlink:href="#me6d63dc41e" y="210.0405"/>
     <use style="fill-opacity:0;stroke:#000000;" x="400.860816" xlink:href="#me6d63dc41e" y="210.0405"/>
     <use style="fill-opacity:0;stroke:#000000;" x="400.860816" xlink:href="#me6d63dc41e" y="210.0405"/>
     <use style="fill-opacity:0;stroke:#000000;" x="400.860816" xlink:href="#me6d63dc41e" y="210.0405"/>
     <use style="fill-opacity:0;stroke:#000000;" x="400.860816" xlink:href="#me6d63dc41e" y="210.0405"/>
     <use style="fill-opacity:0;stroke:#000000;" x="392.844654" xlink:href="#me6d63dc41e" y="210.0405"/>
     <use style="fill-opacity:0;stroke:#000000;" x="384.828493" xlink:href="#me6d63dc41e" y="210.0405"/>
     <use style="fill-opacity:0;stroke:#000000;" x="412.885058" xlink:href="#me6d63dc41e" y="210.0405"/>
     <use style="fill-opacity:0;stroke:#000000;" x="412.885058" xlink:href="#me6d63dc41e" y="210.0405"/>
     <use style="fill-opacity:0;stroke:#000000;" x="380.820412" xlink:href="#me6d63dc41e" y="210.0405"/>
     <use style="fill-opacity:0;stroke:#000000;" x="408.876978" xlink:href="#me6d63dc41e" y="210.0405"/>
     <use style="fill-opacity:0;stroke:#000000;" x="380.820412" xlink:href="#me6d63dc41e" y="210.0405"/>
     <use style="fill-opacity:0;stroke:#000000;" x="380.820412" xlink:href="#me6d63dc41e" y="210.0405"/>
     <use style="fill-opacity:0;stroke:#000000;" x="384.828493" xlink:href="#me6d63dc41e" y="210.0405"/>
     <use style="fill-opacity:0;stroke:#000000;" x="380.820412" xlink:href="#me6d63dc41e" y="210.0405"/>
     <use style="fill-opacity:0;stroke:#000000;" x="380.820412" xlink:href="#me6d63dc41e" y="210.0405"/>
     <use style="fill-opacity:0;stroke:#000000;" x="404.868897" xlink:href="#me6d63dc41e" y="210.0405"/>
     <use style="fill-opacity:0;stroke:#000000;" x="380.820412" xlink:href="#me6d63dc41e" y="210.0405"/>
     <use style="fill-opacity:0;stroke:#000000;" x="380.820412" xlink:href="#me6d63dc41e" y="210.0405"/>
     <use style="fill-opacity:0;stroke:#000000;" x="380.820412" xlink:href="#me6d63dc41e" y="210.0405"/>
     <use style="fill-opacity:0;stroke:#000000;" x="400.860816" xlink:href="#me6d63dc41e" y="210.0405"/>
     <use style="fill-opacity:0;stroke:#000000;" x="412.885058" xlink:href="#me6d63dc41e" y="210.0405"/>
     <use style="fill-opacity:0;stroke:#000000;" x="412.885058" xlink:href="#me6d63dc41e" y="210.0405"/>
     <use style="fill-opacity:0;stroke:#000000;" x="452.965866" xlink:href="#me6d63dc41e" y="210.0405"/>
     <use style="fill-opacity:0;stroke:#000000;" x="452.965866" xlink:href="#me6d63dc41e" y="210.0405"/>
     <use style="fill-opacity:0;stroke:#000000;" x="384.828493" xlink:href="#me6d63dc41e" y="210.0405"/>
     <use style="fill-opacity:0;stroke:#000000;" x="388.836574" xlink:href="#me6d63dc41e" y="210.0405"/>
     <use style="fill-opacity:0;stroke:#000000;" x="388.836574" xlink:href="#me6d63dc41e" y="210.0405"/>
     <use style="fill-opacity:0;stroke:#000000;" x="388.836574" xlink:href="#me6d63dc41e" y="210.0405"/>
     <use style="fill-opacity:0;stroke:#000000;" x="392.844654" xlink:href="#me6d63dc41e" y="210.0405"/>
     <use style="fill-opacity:0;stroke:#000000;" x="392.844654" xlink:href="#me6d63dc41e" y="210.0405"/>
     <use style="fill-opacity:0;stroke:#000000;" x="404.868897" xlink:href="#me6d63dc41e" y="210.0405"/>
     <use style="fill-opacity:0;stroke:#000000;" x="384.828493" xlink:href="#me6d63dc41e" y="210.0405"/>
     <use style="fill-opacity:0;stroke:#000000;" x="380.820412" xlink:href="#me6d63dc41e" y="210.0405"/>
     <use style="fill-opacity:0;stroke:#000000;" x="384.828493" xlink:href="#me6d63dc41e" y="210.0405"/>
     <use style="fill-opacity:0;stroke:#000000;" x="400.860816" xlink:href="#me6d63dc41e" y="210.0405"/>
     <use style="fill-opacity:0;stroke:#000000;" x="400.860816" xlink:href="#me6d63dc41e" y="210.0405"/>
     <use style="fill-opacity:0;stroke:#000000;" x="380.820412" xlink:href="#me6d63dc41e" y="210.0405"/>
     <use style="fill-opacity:0;stroke:#000000;" x="380.820412" xlink:href="#me6d63dc41e" y="210.0405"/>
     <use style="fill-opacity:0;stroke:#000000;" x="404.868897" xlink:href="#me6d63dc41e" y="210.0405"/>
     <use style="fill-opacity:0;stroke:#000000;" x="396.852735" xlink:href="#me6d63dc41e" y="210.0405"/>
     <use style="fill-opacity:0;stroke:#000000;" x="388.836574" xlink:href="#me6d63dc41e" y="210.0405"/>
     <use style="fill-opacity:0;stroke:#000000;" x="380.820412" xlink:href="#me6d63dc41e" y="210.0405"/>
     <use style="fill-opacity:0;stroke:#000000;" x="388.836574" xlink:href="#me6d63dc41e" y="210.0405"/>
     <use style="fill-opacity:0;stroke:#000000;" x="388.836574" xlink:href="#me6d63dc41e" y="210.0405"/>
     <use style="fill-opacity:0;stroke:#000000;" x="400.860816" xlink:href="#me6d63dc41e" y="210.0405"/>
     <use style="fill-opacity:0;stroke:#000000;" x="400.860816" xlink:href="#me6d63dc41e" y="210.0405"/>
     <use style="fill-opacity:0;stroke:#000000;" x="400.860816" xlink:href="#me6d63dc41e" y="210.0405"/>
     <use style="fill-opacity:0;stroke:#000000;" x="400.860816" xlink:href="#me6d63dc41e" y="210.0405"/>
     <use style="fill-opacity:0;stroke:#000000;" x="380.820412" xlink:href="#me6d63dc41e" y="210.0405"/>
     <use style="fill-opacity:0;stroke:#000000;" x="380.820412" xlink:href="#me6d63dc41e" y="210.0405"/>
     <use style="fill-opacity:0;stroke:#000000;" x="380.820412" xlink:href="#me6d63dc41e" y="210.0405"/>
     <use style="fill-opacity:0;stroke:#000000;" x="380.820412" xlink:href="#me6d63dc41e" y="210.0405"/>
     <use style="fill-opacity:0;stroke:#000000;" x="380.820412" xlink:href="#me6d63dc41e" y="210.0405"/>
     <use style="fill-opacity:0;stroke:#000000;" x="380.820412" xlink:href="#me6d63dc41e" y="210.0405"/>
     <use style="fill-opacity:0;stroke:#000000;" x="380.820412" xlink:href="#me6d63dc41e" y="210.0405"/>
     <use style="fill-opacity:0;stroke:#000000;" x="416.893139" xlink:href="#me6d63dc41e" y="210.0405"/>
     <use style="fill-opacity:0;stroke:#000000;" x="392.844654" xlink:href="#me6d63dc41e" y="210.0405"/>
     <use style="fill-opacity:0;stroke:#000000;" x="392.844654" xlink:href="#me6d63dc41e" y="210.0405"/>
     <use style="fill-opacity:0;stroke:#000000;" x="392.844654" xlink:href="#me6d63dc41e" y="210.0405"/>
     <use style="fill-opacity:0;stroke:#000000;" x="380.820412" xlink:href="#me6d63dc41e" y="210.0405"/>
     <use style="fill-opacity:0;stroke:#000000;" x="388.836574" xlink:href="#me6d63dc41e" y="210.0405"/>
     <use style="fill-opacity:0;stroke:#000000;" x="396.852735" xlink:href="#me6d63dc41e" y="210.0405"/>
     <use style="fill-opacity:0;stroke:#000000;" x="380.820412" xlink:href="#me6d63dc41e" y="210.0405"/>
     <use style="fill-opacity:0;stroke:#000000;" x="384.828493" xlink:href="#me6d63dc41e" y="210.0405"/>
     <use style="fill-opacity:0;stroke:#000000;" x="384.828493" xlink:href="#me6d63dc41e" y="210.0405"/>
     <use style="fill-opacity:0;stroke:#000000;" x="412.885058" xlink:href="#me6d63dc41e" y="210.0405"/>
     <use style="fill-opacity:0;stroke:#000000;" x="412.885058" xlink:href="#me6d63dc41e" y="210.0405"/>
     <use style="fill-opacity:0;stroke:#000000;" x="412.885058" xlink:href="#me6d63dc41e" y="210.0405"/>
     <use style="fill-opacity:0;stroke:#000000;" x="400.860816" xlink:href="#me6d63dc41e" y="210.0405"/>
     <use style="fill-opacity:0;stroke:#000000;" x="416.893139" xlink:href="#me6d63dc41e" y="210.0405"/>
     <use style="fill-opacity:0;stroke:#000000;" x="404.868897" xlink:href="#me6d63dc41e" y="210.0405"/>
     <use style="fill-opacity:0;stroke:#000000;" x="380.820412" xlink:href="#me6d63dc41e" y="210.0405"/>
     <use style="fill-opacity:0;stroke:#000000;" x="392.844654" xlink:href="#me6d63dc41e" y="210.0405"/>
     <use style="fill-opacity:0;stroke:#000000;" x="392.844654" xlink:href="#me6d63dc41e" y="210.0405"/>
     <use style="fill-opacity:0;stroke:#000000;" x="388.836574" xlink:href="#me6d63dc41e" y="210.0405"/>
     <use style="fill-opacity:0;stroke:#000000;" x="388.836574" xlink:href="#me6d63dc41e" y="210.0405"/>
     <use style="fill-opacity:0;stroke:#000000;" x="384.828493" xlink:href="#me6d63dc41e" y="210.0405"/>
     <use style="fill-opacity:0;stroke:#000000;" x="384.828493" xlink:href="#me6d63dc41e" y="210.0405"/>
     <use style="fill-opacity:0;stroke:#000000;" x="396.852735" xlink:href="#me6d63dc41e" y="210.0405"/>
     <use style="fill-opacity:0;stroke:#000000;" x="396.852735" xlink:href="#me6d63dc41e" y="210.0405"/>
     <use style="fill-opacity:0;stroke:#000000;" x="384.828493" xlink:href="#me6d63dc41e" y="210.0405"/>
    </g>
   </g>
   <g id="line2d_36">
    <path clip-path="url(#p2db7ea8d40)" d="M 196.448695 185.5785 
L 196.448695 169.2705 
L 244.545664 169.2705 
L 244.545664 185.5785 
L 196.448695 185.5785 
" style="fill:none;stroke:#4c72b0;stroke-linecap:round;"/>
   </g>
   <g id="line2d_37">
    <path clip-path="url(#p2db7ea8d40)" d="M 196.448695 177.4245 
L 132.319402 177.4245 
" style="fill:none;stroke:#4c72b0;stroke-linecap:round;"/>
   </g>
   <g id="line2d_38">
    <path clip-path="url(#p2db7ea8d40)" d="M 244.545664 177.4245 
L 316.691119 177.4245 
" style="fill:none;stroke:#4c72b0;stroke-linecap:round;"/>
   </g>
   <g id="line2d_39">
    <path clip-path="url(#p2db7ea8d40)" d="M 132.319402 181.5015 
L 132.319402 173.3475 
" style="fill:none;stroke:#1a1a1a;stroke-linecap:round;"/>
   </g>
   <g id="line2d_40">
    <path clip-path="url(#p2db7ea8d40)" d="M 316.691119 181.5015 
L 316.691119 173.3475 
" style="fill:none;stroke:#1a1a1a;stroke-linecap:round;"/>
   </g>
   <g id="line2d_41">
    <g clip-path="url(#p2db7ea8d40)">
     <use style="fill-opacity:0;stroke:#000000;" x="440.941624" xlink:href="#me6d63dc41e" y="177.4245"/>
     <use style="fill-opacity:0;stroke:#000000;" x="340.739604" xlink:href="#me6d63dc41e" y="177.4245"/>
     <use style="fill-opacity:0;stroke:#000000;" x="320.6992" xlink:href="#me6d63dc41e" y="177.4245"/>
     <use style="fill-opacity:0;stroke:#000000;" x="324.707281" xlink:href="#me6d63dc41e" y="177.4245"/>
     <use style="fill-opacity:0;stroke:#000000;" x="324.707281" xlink:href="#me6d63dc41e" y="177.4245"/>
     <use style="fill-opacity:0;stroke:#000000;" x="384.828493" xlink:href="#me6d63dc41e" y="177.4245"/>
     <use style="fill-opacity:0;stroke:#000000;" x="364.788089" xlink:href="#me6d63dc41e" y="177.4245"/>
     <use style="fill-opacity:0;stroke:#000000;" x="328.715361" xlink:href="#me6d63dc41e" y="177.4245"/>
     <use style="fill-opacity:0;stroke:#000000;" x="324.707281" xlink:href="#me6d63dc41e" y="177.4245"/>
     <use style="fill-opacity:0;stroke:#000000;" x="348.755765" xlink:href="#me6d63dc41e" y="177.4245"/>
     <use style="fill-opacity:0;stroke:#000000;" x="372.80425" xlink:href="#me6d63dc41e" y="177.4245"/>
     <use style="fill-opacity:0;stroke:#000000;" x="372.80425" xlink:href="#me6d63dc41e" y="177.4245"/>
     <use style="fill-opacity:0;stroke:#000000;" x="372.80425" xlink:href="#me6d63dc41e" y="177.4245"/>
     <use style="fill-opacity:0;stroke:#000000;" x="336.731523" xlink:href="#me6d63dc41e" y="177.4245"/>
     <use style="fill-opacity:0;stroke:#000000;" x="348.755765" xlink:href="#me6d63dc41e" y="177.4245"/>
     <use style="fill-opacity:0;stroke:#000000;" x="348.755765" xlink:href="#me6d63dc41e" y="177.4245"/>
     <use style="fill-opacity:0;stroke:#000000;" x="348.755765" xlink:href="#me6d63dc41e" y="177.4245"/>
     <use style="fill-opacity:0;stroke:#000000;" x="348.755765" xlink:href="#me6d63dc41e" y="177.4245"/>
     <use style="fill-opacity:0;stroke:#000000;" x="348.755765" xlink:href="#me6d63dc41e" y="177.4245"/>
    </g>
   </g>
   <g id="line2d_42">
    <path clip-path="url(#p2db7ea8d40)" d="M 188.432533 152.9625 
L 188.432533 136.6545 
L 244.545664 136.6545 
L 244.545664 152.9625 
L 188.432533 152.9625 
" style="fill:none;stroke:#4c72b0;stroke-linecap:round;"/>
   </g>
   <g id="line2d_43">
    <path clip-path="url(#p2db7ea8d40)" d="M 188.432533 144.8085 
L 128.311321 144.8085 
" style="fill:none;stroke:#4c72b0;stroke-linecap:round;"/>
   </g>
   <g id="line2d_44">
    <path clip-path="url(#p2db7ea8d40)" d="M 244.545664 144.8085 
L 324.707281 144.8085 
" style="fill:none;stroke:#4c72b0;stroke-linecap:round;"/>
   </g>
   <g id="line2d_45">
    <path clip-path="url(#p2db7ea8d40)" d="M 128.311321 148.8855 
L 128.311321 140.7315 
" style="fill:none;stroke:#1a1a1a;stroke-linecap:round;"/>
   </g>
   <g id="line2d_46">
    <path clip-path="url(#p2db7ea8d40)" d="M 324.707281 148.8855 
L 324.707281 140.7315 
" style="fill:none;stroke:#1a1a1a;stroke-linecap:round;"/>
   </g>
   <g id="line2d_47">
    <g clip-path="url(#p2db7ea8d40)">
     <use style="fill-opacity:0;stroke:#000000;" x="360.780008" xlink:href="#me6d63dc41e" y="144.8085"/>
     <use style="fill-opacity:0;stroke:#000000;" x="376.812331" xlink:href="#me6d63dc41e" y="144.8085"/>
     <use style="fill-opacity:0;stroke:#000000;" x="384.828493" xlink:href="#me6d63dc41e" y="144.8085"/>
     <use style="fill-opacity:0;stroke:#000000;" x="392.844654" xlink:href="#me6d63dc41e" y="144.8085"/>
     <use style="fill-opacity:0;stroke:#000000;" x="368.79617" xlink:href="#me6d63dc41e" y="144.8085"/>
     <use style="fill-opacity:0;stroke:#000000;" x="352.763846" xlink:href="#me6d63dc41e" y="144.8085"/>
     <use style="fill-opacity:0;stroke:#000000;" x="356.771927" xlink:href="#me6d63dc41e" y="144.8085"/>
     <use style="fill-opacity:0;stroke:#000000;" x="356.771927" xlink:href="#me6d63dc41e" y="144.8085"/>
     <use style="fill-opacity:0;stroke:#000000;" x="376.812331" xlink:href="#me6d63dc41e" y="144.8085"/>
     <use style="fill-opacity:0;stroke:#000000;" x="336.731523" xlink:href="#me6d63dc41e" y="144.8085"/>
     <use style="fill-opacity:0;stroke:#000000;" x="372.80425" xlink:href="#me6d63dc41e" y="144.8085"/>
     <use style="fill-opacity:0;stroke:#000000;" x="344.747685" xlink:href="#me6d63dc41e" y="144.8085"/>
     <use style="fill-opacity:0;stroke:#000000;" x="360.780008" xlink:href="#me6d63dc41e" y="144.8085"/>
     <use style="fill-opacity:0;stroke:#000000;" x="344.747685" xlink:href="#me6d63dc41e" y="144.8085"/>
     <use style="fill-opacity:0;stroke:#000000;" x="356.771927" xlink:href="#me6d63dc41e" y="144.8085"/>
     <use style="fill-opacity:0;stroke:#000000;" x="392.844654" xlink:href="#me6d63dc41e" y="144.8085"/>
     <use style="fill-opacity:0;stroke:#000000;" x="436.933543" xlink:href="#me6d63dc41e" y="144.8085"/>
     <use style="fill-opacity:0;stroke:#000000;" x="348.755765" xlink:href="#me6d63dc41e" y="144.8085"/>
     <use style="fill-opacity:0;stroke:#000000;" x="340.739604" xlink:href="#me6d63dc41e" y="144.8085"/>
     <use style="fill-opacity:0;stroke:#000000;" x="332.723442" xlink:href="#me6d63dc41e" y="144.8085"/>
     <use style="fill-opacity:0;stroke:#000000;" x="360.780008" xlink:href="#me6d63dc41e" y="144.8085"/>
     <use style="fill-opacity:0;stroke:#000000;" x="360.780008" xlink:href="#me6d63dc41e" y="144.8085"/>
     <use style="fill-opacity:0;stroke:#000000;" x="376.812331" xlink:href="#me6d63dc41e" y="144.8085"/>
     <use style="fill-opacity:0;stroke:#000000;" x="376.812331" xlink:href="#me6d63dc41e" y="144.8085"/>
     <use style="fill-opacity:0;stroke:#000000;" x="376.812331" xlink:href="#me6d63dc41e" y="144.8085"/>
     <use style="fill-opacity:0;stroke:#000000;" x="396.852735" xlink:href="#me6d63dc41e" y="144.8085"/>
     <use style="fill-opacity:0;stroke:#000000;" x="404.868897" xlink:href="#me6d63dc41e" y="144.8085"/>
     <use style="fill-opacity:0;stroke:#000000;" x="344.747685" xlink:href="#me6d63dc41e" y="144.8085"/>
     <use style="fill-opacity:0;stroke:#000000;" x="360.780008" xlink:href="#me6d63dc41e" y="144.8085"/>
    </g>
   </g>
   <g id="line2d_48">
    <path clip-path="url(#p2db7ea8d40)" d="M 184.424452 120.3465 
L 184.424452 104.0385 
L 236.529503 104.0385 
L 236.529503 120.3465 
L 184.424452 120.3465 
" style="fill:none;stroke:#4c72b0;stroke-linecap:round;"/>
   </g>
   <g id="line2d_49">
    <path clip-path="url(#p2db7ea8d40)" d="M 184.424452 112.1925 
L 132.319402 112.1925 
" style="fill:none;stroke:#4c72b0;stroke-linecap:round;"/>
   </g>
   <g id="line2d_50">
    <path clip-path="url(#p2db7ea8d40)" d="M 236.529503 112.1925 
L 312.683038 112.1925 
" style="fill:none;stroke:#4c72b0;stroke-linecap:round;"/>
   </g>
   <g id="line2d_51">
    <path clip-path="url(#p2db7ea8d40)" d="M 132.319402 116.2695 
L 132.319402 108.1155 
" style="fill:none;stroke:#1a1a1a;stroke-linecap:round;"/>
   </g>
   <g id="line2d_52">
    <path clip-path="url(#p2db7ea8d40)" d="M 312.683038 116.2695 
L 312.683038 108.1155 
" style="fill:none;stroke:#1a1a1a;stroke-linecap:round;"/>
   </g>
   <g id="line2d_53">
    <g clip-path="url(#p2db7ea8d40)">
     <use style="fill-opacity:0;stroke:#000000;" x="344.747685" xlink:href="#me6d63dc41e" y="112.1925"/>
     <use style="fill-opacity:0;stroke:#000000;" x="332.723442" xlink:href="#me6d63dc41e" y="112.1925"/>
     <use style="fill-opacity:0;stroke:#000000;" x="332.723442" xlink:href="#me6d63dc41e" y="112.1925"/>
     <use style="fill-opacity:0;stroke:#000000;" x="380.820412" xlink:href="#me6d63dc41e" y="112.1925"/>
     <use style="fill-opacity:0;stroke:#000000;" x="316.691119" xlink:href="#me6d63dc41e" y="112.1925"/>
     <use style="fill-opacity:0;stroke:#000000;" x="316.691119" xlink:href="#me6d63dc41e" y="112.1925"/>
     <use style="fill-opacity:0;stroke:#000000;" x="336.731523" xlink:href="#me6d63dc41e" y="112.1925"/>
     <use style="fill-opacity:0;stroke:#000000;" x="412.885058" xlink:href="#me6d63dc41e" y="112.1925"/>
     <use style="fill-opacity:0;stroke:#000000;" x="324.707281" xlink:href="#me6d63dc41e" y="112.1925"/>
     <use style="fill-opacity:0;stroke:#000000;" x="372.80425" xlink:href="#me6d63dc41e" y="112.1925"/>
     <use style="fill-opacity:0;stroke:#000000;" x="376.812331" xlink:href="#me6d63dc41e" y="112.1925"/>
     <use style="fill-opacity:0;stroke:#000000;" x="376.812331" xlink:href="#me6d63dc41e" y="112.1925"/>
     <use style="fill-opacity:0;stroke:#000000;" x="336.731523" xlink:href="#me6d63dc41e" y="112.1925"/>
     <use style="fill-opacity:0;stroke:#000000;" x="336.731523" xlink:href="#me6d63dc41e" y="112.1925"/>
     <use style="fill-opacity:0;stroke:#000000;" x="336.731523" xlink:href="#me6d63dc41e" y="112.1925"/>
     <use style="fill-opacity:0;stroke:#000000;" x="356.771927" xlink:href="#me6d63dc41e" y="112.1925"/>
     <use style="fill-opacity:0;stroke:#000000;" x="356.771927" xlink:href="#me6d63dc41e" y="112.1925"/>
     <use style="fill-opacity:0;stroke:#000000;" x="356.771927" xlink:href="#me6d63dc41e" y="112.1925"/>
     <use style="fill-opacity:0;stroke:#000000;" x="356.771927" xlink:href="#me6d63dc41e" y="112.1925"/>
     <use style="fill-opacity:0;stroke:#000000;" x="336.731523" xlink:href="#me6d63dc41e" y="112.1925"/>
     <use style="fill-opacity:0;stroke:#000000;" x="340.739604" xlink:href="#me6d63dc41e" y="112.1925"/>
     <use style="fill-opacity:0;stroke:#000000;" x="320.6992" xlink:href="#me6d63dc41e" y="112.1925"/>
     <use style="fill-opacity:0;stroke:#000000;" x="380.820412" xlink:href="#me6d63dc41e" y="112.1925"/>
     <use style="fill-opacity:0;stroke:#000000;" x="320.6992" xlink:href="#me6d63dc41e" y="112.1925"/>
     <use style="fill-opacity:0;stroke:#000000;" x="316.691119" xlink:href="#me6d63dc41e" y="112.1925"/>
     <use style="fill-opacity:0;stroke:#000000;" x="384.828493" xlink:href="#me6d63dc41e" y="112.1925"/>
     <use style="fill-opacity:0;stroke:#000000;" x="352.763846" xlink:href="#me6d63dc41e" y="112.1925"/>
     <use style="fill-opacity:0;stroke:#000000;" x="336.731523" xlink:href="#me6d63dc41e" y="112.1925"/>
     <use style="fill-opacity:0;stroke:#000000;" x="336.731523" xlink:href="#me6d63dc41e" y="112.1925"/>
     <use style="fill-opacity:0;stroke:#000000;" x="340.739604" xlink:href="#me6d63dc41e" y="112.1925"/>
     <use style="fill-opacity:0;stroke:#000000;" x="332.723442" xlink:href="#me6d63dc41e" y="112.1925"/>
     <use style="fill-opacity:0;stroke:#000000;" x="320.6992" xlink:href="#me6d63dc41e" y="112.1925"/>
     <use style="fill-opacity:0;stroke:#000000;" x="340.739604" xlink:href="#me6d63dc41e" y="112.1925"/>
     <use style="fill-opacity:0;stroke:#000000;" x="316.691119" xlink:href="#me6d63dc41e" y="112.1925"/>
     <use style="fill-opacity:0;stroke:#000000;" x="316.691119" xlink:href="#me6d63dc41e" y="112.1925"/>
     <use style="fill-opacity:0;stroke:#000000;" x="380.820412" xlink:href="#me6d63dc41e" y="112.1925"/>
     <use style="fill-opacity:0;stroke:#000000;" x="336.731523" xlink:href="#me6d63dc41e" y="112.1925"/>
     <use style="fill-opacity:0;stroke:#000000;" x="316.691119" xlink:href="#me6d63dc41e" y="112.1925"/>
     <use style="fill-opacity:0;stroke:#000000;" x="316.691119" xlink:href="#me6d63dc41e" y="112.1925"/>
     <use style="fill-opacity:0;stroke:#000000;" x="348.755765" xlink:href="#me6d63dc41e" y="112.1925"/>
     <use style="fill-opacity:0;stroke:#000000;" x="332.723442" xlink:href="#me6d63dc41e" y="112.1925"/>
     <use style="fill-opacity:0;stroke:#000000;" x="392.844654" xlink:href="#me6d63dc41e" y="112.1925"/>
     <use style="fill-opacity:0;stroke:#000000;" x="392.844654" xlink:href="#me6d63dc41e" y="112.1925"/>
     <use style="fill-opacity:0;stroke:#000000;" x="356.771927" xlink:href="#me6d63dc41e" y="112.1925"/>
     <use style="fill-opacity:0;stroke:#000000;" x="396.852735" xlink:href="#me6d63dc41e" y="112.1925"/>
     <use style="fill-opacity:0;stroke:#000000;" x="316.691119" xlink:href="#me6d63dc41e" y="112.1925"/>
     <use style="fill-opacity:0;stroke:#000000;" x="352.763846" xlink:href="#me6d63dc41e" y="112.1925"/>
     <use style="fill-opacity:0;stroke:#000000;" x="352.763846" xlink:href="#me6d63dc41e" y="112.1925"/>
     <use style="fill-opacity:0;stroke:#000000;" x="324.707281" xlink:href="#me6d63dc41e" y="112.1925"/>
     <use style="fill-opacity:0;stroke:#000000;" x="324.707281" xlink:href="#me6d63dc41e" y="112.1925"/>
     <use style="fill-opacity:0;stroke:#000000;" x="360.780008" xlink:href="#me6d63dc41e" y="112.1925"/>
     <use style="fill-opacity:0;stroke:#000000;" x="368.79617" xlink:href="#me6d63dc41e" y="112.1925"/>
     <use style="fill-opacity:0;stroke:#000000;" x="388.836574" xlink:href="#me6d63dc41e" y="112.1925"/>
     <use style="fill-opacity:0;stroke:#000000;" x="336.731523" xlink:href="#me6d63dc41e" y="112.1925"/>
     <use style="fill-opacity:0;stroke:#000000;" x="340.739604" xlink:href="#me6d63dc41e" y="112.1925"/>
     <use style="fill-opacity:0;stroke:#000000;" x="376.812331" xlink:href="#me6d63dc41e" y="112.1925"/>
     <use style="fill-opacity:0;stroke:#000000;" x="384.828493" xlink:href="#me6d63dc41e" y="112.1925"/>
     <use style="fill-opacity:0;stroke:#000000;" x="324.707281" xlink:href="#me6d63dc41e" y="112.1925"/>
     <use style="fill-opacity:0;stroke:#000000;" x="324.707281" xlink:href="#me6d63dc41e" y="112.1925"/>
     <use style="fill-opacity:0;stroke:#000000;" x="316.691119" xlink:href="#me6d63dc41e" y="112.1925"/>
     <use style="fill-opacity:0;stroke:#000000;" x="332.723442" xlink:href="#me6d63dc41e" y="112.1925"/>
     <use style="fill-opacity:0;stroke:#000000;" x="324.707281" xlink:href="#me6d63dc41e" y="112.1925"/>
     <use style="fill-opacity:0;stroke:#000000;" x="320.6992" xlink:href="#me6d63dc41e" y="112.1925"/>
     <use style="fill-opacity:0;stroke:#000000;" x="336.731523" xlink:href="#me6d63dc41e" y="112.1925"/>
     <use style="fill-opacity:0;stroke:#000000;" x="344.747685" xlink:href="#me6d63dc41e" y="112.1925"/>
     <use style="fill-opacity:0;stroke:#000000;" x="344.747685" xlink:href="#me6d63dc41e" y="112.1925"/>
     <use style="fill-opacity:0;stroke:#000000;" x="372.80425" xlink:href="#me6d63dc41e" y="112.1925"/>
     <use style="fill-opacity:0;stroke:#000000;" x="344.747685" xlink:href="#me6d63dc41e" y="112.1925"/>
     <use style="fill-opacity:0;stroke:#000000;" x="332.723442" xlink:href="#me6d63dc41e" y="112.1925"/>
     <use style="fill-opacity:0;stroke:#000000;" x="332.723442" xlink:href="#me6d63dc41e" y="112.1925"/>
     <use style="fill-opacity:0;stroke:#000000;" x="332.723442" xlink:href="#me6d63dc41e" y="112.1925"/>
     <use style="fill-opacity:0;stroke:#000000;" x="320.6992" xlink:href="#me6d63dc41e" y="112.1925"/>
     <use style="fill-opacity:0;stroke:#000000;" x="320.6992" xlink:href="#me6d63dc41e" y="112.1925"/>
    </g>
   </g>
   <g id="line2d_54">
    <path clip-path="url(#p2db7ea8d40)" d="M 192.440614 87.7305 
L 192.440614 71.4225 
L 248.553745 71.4225 
L 248.553745 87.7305 
L 192.440614 87.7305 
" style="fill:none;stroke:#4c72b0;stroke-linecap:round;"/>
   </g>
   <g id="line2d_55">
    <path clip-path="url(#p2db7ea8d40)" d="M 192.440614 79.5765 
L 140.335563 79.5765 
" style="fill:none;stroke:#4c72b0;stroke-linecap:round;"/>
   </g>
   <g id="line2d_56">
    <path clip-path="url(#p2db7ea8d40)" d="M 248.553745 79.5765 
L 332.723442 79.5765 
" style="fill:none;stroke:#4c72b0;stroke-linecap:round;"/>
   </g>
   <g id="line2d_57">
    <path clip-path="url(#p2db7ea8d40)" d="M 140.335563 83.6535 
L 140.335563 75.4995 
" style="fill:none;stroke:#1a1a1a;stroke-linecap:round;"/>
   </g>
   <g id="line2d_58">
    <path clip-path="url(#p2db7ea8d40)" d="M 332.723442 83.6535 
L 332.723442 75.4995 
" style="fill:none;stroke:#1a1a1a;stroke-linecap:round;"/>
   </g>
   <g id="line2d_59">
    <g clip-path="url(#p2db7ea8d40)">
     <use style="fill-opacity:0;stroke:#000000;" x="380.820412" xlink:href="#me6d63dc41e" y="79.5765"/>
     <use style="fill-opacity:0;stroke:#000000;" x="384.828493" xlink:href="#me6d63dc41e" y="79.5765"/>
     <use style="fill-opacity:0;stroke:#000000;" x="384.828493" xlink:href="#me6d63dc41e" y="79.5765"/>
     <use style="fill-opacity:0;stroke:#000000;" x="336.731523" xlink:href="#me6d63dc41e" y="79.5765"/>
     <use style="fill-opacity:0;stroke:#000000;" x="400.860816" xlink:href="#me6d63dc41e" y="79.5765"/>
     <use style="fill-opacity:0;stroke:#000000;" x="356.771927" xlink:href="#me6d63dc41e" y="79.5765"/>
     <use style="fill-opacity:0;stroke:#000000;" x="356.771927" xlink:href="#me6d63dc41e" y="79.5765"/>
     <use style="fill-opacity:0;stroke:#000000;" x="352.763846" xlink:href="#me6d63dc41e" y="79.5765"/>
     <use style="fill-opacity:0;stroke:#000000;" x="340.739604" xlink:href="#me6d63dc41e" y="79.5765"/>
     <use style="fill-opacity:0;stroke:#000000;" x="340.739604" xlink:href="#me6d63dc41e" y="79.5765"/>
     <use style="fill-opacity:0;stroke:#000000;" x="340.739604" xlink:href="#me6d63dc41e" y="79.5765"/>
     <use style="fill-opacity:0;stroke:#000000;" x="364.788089" xlink:href="#me6d63dc41e" y="79.5765"/>
     <use style="fill-opacity:0;stroke:#000000;" x="344.747685" xlink:href="#me6d63dc41e" y="79.5765"/>
     <use style="fill-opacity:0;stroke:#000000;" x="392.844654" xlink:href="#me6d63dc41e" y="79.5765"/>
     <use style="fill-opacity:0;stroke:#000000;" x="336.731523" xlink:href="#me6d63dc41e" y="79.5765"/>
     <use style="fill-opacity:0;stroke:#000000;" x="336.731523" xlink:href="#me6d63dc41e" y="79.5765"/>
     <use style="fill-opacity:0;stroke:#000000;" x="336.731523" xlink:href="#me6d63dc41e" y="79.5765"/>
     <use style="fill-opacity:0;stroke:#000000;" x="356.771927" xlink:href="#me6d63dc41e" y="79.5765"/>
     <use style="fill-opacity:0;stroke:#000000;" x="336.731523" xlink:href="#me6d63dc41e" y="79.5765"/>
     <use style="fill-opacity:0;stroke:#000000;" x="344.747685" xlink:href="#me6d63dc41e" y="79.5765"/>
     <use style="fill-opacity:0;stroke:#000000;" x="344.747685" xlink:href="#me6d63dc41e" y="79.5765"/>
     <use style="fill-opacity:0;stroke:#000000;" x="348.755765" xlink:href="#me6d63dc41e" y="79.5765"/>
     <use style="fill-opacity:0;stroke:#000000;" x="372.80425" xlink:href="#me6d63dc41e" y="79.5765"/>
     <use style="fill-opacity:0;stroke:#000000;" x="372.80425" xlink:href="#me6d63dc41e" y="79.5765"/>
     <use style="fill-opacity:0;stroke:#000000;" x="404.868897" xlink:href="#me6d63dc41e" y="79.5765"/>
     <use style="fill-opacity:0;stroke:#000000;" x="364.788089" xlink:href="#me6d63dc41e" y="79.5765"/>
     <use style="fill-opacity:0;stroke:#000000;" x="372.80425" xlink:href="#me6d63dc41e" y="79.5765"/>
     <use style="fill-opacity:0;stroke:#000000;" x="348.755765" xlink:href="#me6d63dc41e" y="79.5765"/>
     <use style="fill-opacity:0;stroke:#000000;" x="400.860816" xlink:href="#me6d63dc41e" y="79.5765"/>
     <use style="fill-opacity:0;stroke:#000000;" x="388.836574" xlink:href="#me6d63dc41e" y="79.5765"/>
     <use style="fill-opacity:0;stroke:#000000;" x="344.747685" xlink:href="#me6d63dc41e" y="79.5765"/>
     <use style="fill-opacity:0;stroke:#000000;" x="344.747685" xlink:href="#me6d63dc41e" y="79.5765"/>
     <use style="fill-opacity:0;stroke:#000000;" x="352.763846" xlink:href="#me6d63dc41e" y="79.5765"/>
     <use style="fill-opacity:0;stroke:#000000;" x="356.771927" xlink:href="#me6d63dc41e" y="79.5765"/>
     <use style="fill-opacity:0;stroke:#000000;" x="336.731523" xlink:href="#me6d63dc41e" y="79.5765"/>
     <use style="fill-opacity:0;stroke:#000000;" x="336.731523" xlink:href="#me6d63dc41e" y="79.5765"/>
     <use style="fill-opacity:0;stroke:#000000;" x="364.788089" xlink:href="#me6d63dc41e" y="79.5765"/>
     <use style="fill-opacity:0;stroke:#000000;" x="364.788089" xlink:href="#me6d63dc41e" y="79.5765"/>
     <use style="fill-opacity:0;stroke:#000000;" x="352.763846" xlink:href="#me6d63dc41e" y="79.5765"/>
     <use style="fill-opacity:0;stroke:#000000;" x="344.747685" xlink:href="#me6d63dc41e" y="79.5765"/>
     <use style="fill-opacity:0;stroke:#000000;" x="368.79617" xlink:href="#me6d63dc41e" y="79.5765"/>
     <use style="fill-opacity:0;stroke:#000000;" x="348.755765" xlink:href="#me6d63dc41e" y="79.5765"/>
     <use style="fill-opacity:0;stroke:#000000;" x="340.739604" xlink:href="#me6d63dc41e" y="79.5765"/>
     <use style="fill-opacity:0;stroke:#000000;" x="344.747685" xlink:href="#me6d63dc41e" y="79.5765"/>
     <use style="fill-opacity:0;stroke:#000000;" x="344.747685" xlink:href="#me6d63dc41e" y="79.5765"/>
     <use style="fill-opacity:0;stroke:#000000;" x="340.739604" xlink:href="#me6d63dc41e" y="79.5765"/>
     <use style="fill-opacity:0;stroke:#000000;" x="380.820412" xlink:href="#me6d63dc41e" y="79.5765"/>
     <use style="fill-opacity:0;stroke:#000000;" x="352.763846" xlink:href="#me6d63dc41e" y="79.5765"/>
     <use style="fill-opacity:0;stroke:#000000;" x="356.771927" xlink:href="#me6d63dc41e" y="79.5765"/>
    </g>
   </g>
   <g id="line2d_60">
    <path clip-path="url(#p2db7ea8d40)" d="M 188.432533 55.1145 
L 188.432533 38.8065 
L 240.537584 38.8065 
L 240.537584 55.1145 
L 188.432533 55.1145 
" style="fill:none;stroke:#4c72b0;stroke-linecap:round;"/>
   </g>
   <g id="line2d_61">
    <path clip-path="url(#p2db7ea8d40)" d="M 188.432533 46.9605 
L 140.335563 46.9605 
" style="fill:none;stroke:#4c72b0;stroke-linecap:round;"/>
   </g>
   <g id="line2d_62">
    <path clip-path="url(#p2db7ea8d40)" d="M 240.537584 46.9605 
L 316.691119 46.9605 
" style="fill:none;stroke:#4c72b0;stroke-linecap:round;"/>
   </g>
   <g id="line2d_63">
    <path clip-path="url(#p2db7ea8d40)" d="M 140.335563 51.0375 
L 140.335563 42.8835 
" style="fill:none;stroke:#1a1a1a;stroke-linecap:round;"/>
   </g>
   <g id="line2d_64">
    <path clip-path="url(#p2db7ea8d40)" d="M 316.691119 51.0375 
L 316.691119 42.8835 
" style="fill:none;stroke:#1a1a1a;stroke-linecap:round;"/>
   </g>
   <g id="line2d_65">
    <g clip-path="url(#p2db7ea8d40)">
     <use style="fill-opacity:0;stroke:#000000;" x="364.788089" xlink:href="#me6d63dc41e" y="46.9605"/>
     <use style="fill-opacity:0;stroke:#000000;" x="328.715361" xlink:href="#me6d63dc41e" y="46.9605"/>
     <use style="fill-opacity:0;stroke:#000000;" x="352.763846" xlink:href="#me6d63dc41e" y="46.9605"/>
     <use style="fill-opacity:0;stroke:#000000;" x="332.723442" xlink:href="#me6d63dc41e" y="46.9605"/>
     <use style="fill-opacity:0;stroke:#000000;" x="340.739604" xlink:href="#me6d63dc41e" y="46.9605"/>
     <use style="fill-opacity:0;stroke:#000000;" x="352.763846" xlink:href="#me6d63dc41e" y="46.9605"/>
     <use style="fill-opacity:0;stroke:#000000;" x="320.6992" xlink:href="#me6d63dc41e" y="46.9605"/>
     <use style="fill-opacity:0;stroke:#000000;" x="324.707281" xlink:href="#me6d63dc41e" y="46.9605"/>
     <use style="fill-opacity:0;stroke:#000000;" x="328.715361" xlink:href="#me6d63dc41e" y="46.9605"/>
     <use style="fill-opacity:0;stroke:#000000;" x="336.731523" xlink:href="#me6d63dc41e" y="46.9605"/>
     <use style="fill-opacity:0;stroke:#000000;" x="344.747685" xlink:href="#me6d63dc41e" y="46.9605"/>
     <use style="fill-opacity:0;stroke:#000000;" x="320.6992" xlink:href="#me6d63dc41e" y="46.9605"/>
     <use style="fill-opacity:0;stroke:#000000;" x="344.747685" xlink:href="#me6d63dc41e" y="46.9605"/>
     <use style="fill-opacity:0;stroke:#000000;" x="344.747685" xlink:href="#me6d63dc41e" y="46.9605"/>
     <use style="fill-opacity:0;stroke:#000000;" x="336.731523" xlink:href="#me6d63dc41e" y="46.9605"/>
     <use style="fill-opacity:0;stroke:#000000;" x="352.763846" xlink:href="#me6d63dc41e" y="46.9605"/>
     <use style="fill-opacity:0;stroke:#000000;" x="320.6992" xlink:href="#me6d63dc41e" y="46.9605"/>
     <use style="fill-opacity:0;stroke:#000000;" x="324.707281" xlink:href="#me6d63dc41e" y="46.9605"/>
     <use style="fill-opacity:0;stroke:#000000;" x="332.723442" xlink:href="#me6d63dc41e" y="46.9605"/>
     <use style="fill-opacity:0;stroke:#000000;" x="348.755765" xlink:href="#me6d63dc41e" y="46.9605"/>
     <use style="fill-opacity:0;stroke:#000000;" x="348.755765" xlink:href="#me6d63dc41e" y="46.9605"/>
     <use style="fill-opacity:0;stroke:#000000;" x="348.755765" xlink:href="#me6d63dc41e" y="46.9605"/>
     <use style="fill-opacity:0;stroke:#000000;" x="388.836574" xlink:href="#me6d63dc41e" y="46.9605"/>
     <use style="fill-opacity:0;stroke:#000000;" x="364.788089" xlink:href="#me6d63dc41e" y="46.9605"/>
     <use style="fill-opacity:0;stroke:#000000;" x="324.707281" xlink:href="#me6d63dc41e" y="46.9605"/>
     <use style="fill-opacity:0;stroke:#000000;" x="336.731523" xlink:href="#me6d63dc41e" y="46.9605"/>
     <use style="fill-opacity:0;stroke:#000000;" x="328.715361" xlink:href="#me6d63dc41e" y="46.9605"/>
     <use style="fill-opacity:0;stroke:#000000;" x="356.771927" xlink:href="#me6d63dc41e" y="46.9605"/>
     <use style="fill-opacity:0;stroke:#000000;" x="364.788089" xlink:href="#me6d63dc41e" y="46.9605"/>
     <use style="fill-opacity:0;stroke:#000000;" x="356.771927" xlink:href="#me6d63dc41e" y="46.9605"/>
     <use style="fill-opacity:0;stroke:#000000;" x="344.747685" xlink:href="#me6d63dc41e" y="46.9605"/>
     <use style="fill-opacity:0;stroke:#000000;" x="340.739604" xlink:href="#me6d63dc41e" y="46.9605"/>
     <use style="fill-opacity:0;stroke:#000000;" x="324.707281" xlink:href="#me6d63dc41e" y="46.9605"/>
     <use style="fill-opacity:0;stroke:#000000;" x="412.885058" xlink:href="#me6d63dc41e" y="46.9605"/>
     <use style="fill-opacity:0;stroke:#000000;" x="328.715361" xlink:href="#me6d63dc41e" y="46.9605"/>
     <use style="fill-opacity:0;stroke:#000000;" x="344.747685" xlink:href="#me6d63dc41e" y="46.9605"/>
     <use style="fill-opacity:0;stroke:#000000;" x="344.747685" xlink:href="#me6d63dc41e" y="46.9605"/>
     <use style="fill-opacity:0;stroke:#000000;" x="352.763846" xlink:href="#me6d63dc41e" y="46.9605"/>
     <use style="fill-opacity:0;stroke:#000000;" x="324.707281" xlink:href="#me6d63dc41e" y="46.9605"/>
     <use style="fill-opacity:0;stroke:#000000;" x="424.909301" xlink:href="#me6d63dc41e" y="46.9605"/>
     <use style="fill-opacity:0;stroke:#000000;" x="424.909301" xlink:href="#me6d63dc41e" y="46.9605"/>
     <use style="fill-opacity:0;stroke:#000000;" x="336.731523" xlink:href="#me6d63dc41e" y="46.9605"/>
     <use style="fill-opacity:0;stroke:#000000;" x="364.788089" xlink:href="#me6d63dc41e" y="46.9605"/>
     <use style="fill-opacity:0;stroke:#000000;" x="324.707281" xlink:href="#me6d63dc41e" y="46.9605"/>
     <use style="fill-opacity:0;stroke:#000000;" x="336.731523" xlink:href="#me6d63dc41e" y="46.9605"/>
     <use style="fill-opacity:0;stroke:#000000;" x="340.739604" xlink:href="#me6d63dc41e" y="46.9605"/>
     <use style="fill-opacity:0;stroke:#000000;" x="332.723442" xlink:href="#me6d63dc41e" y="46.9605"/>
     <use style="fill-opacity:0;stroke:#000000;" x="340.739604" xlink:href="#me6d63dc41e" y="46.9605"/>
     <use style="fill-opacity:0;stroke:#000000;" x="332.723442" xlink:href="#me6d63dc41e" y="46.9605"/>
     <use style="fill-opacity:0;stroke:#000000;" x="332.723442" xlink:href="#me6d63dc41e" y="46.9605"/>
     <use style="fill-opacity:0;stroke:#000000;" x="332.723442" xlink:href="#me6d63dc41e" y="46.9605"/>
     <use style="fill-opacity:0;stroke:#000000;" x="336.731523" xlink:href="#me6d63dc41e" y="46.9605"/>
     <use style="fill-opacity:0;stroke:#000000;" x="320.6992" xlink:href="#me6d63dc41e" y="46.9605"/>
     <use style="fill-opacity:0;stroke:#000000;" x="388.836574" xlink:href="#me6d63dc41e" y="46.9605"/>
     <use style="fill-opacity:0;stroke:#000000;" x="388.836574" xlink:href="#me6d63dc41e" y="46.9605"/>
     <use style="fill-opacity:0;stroke:#000000;" x="388.836574" xlink:href="#me6d63dc41e" y="46.9605"/>
     <use style="fill-opacity:0;stroke:#000000;" x="368.79617" xlink:href="#me6d63dc41e" y="46.9605"/>
     <use style="fill-opacity:0;stroke:#000000;" x="340.739604" xlink:href="#me6d63dc41e" y="46.9605"/>
     <use style="fill-opacity:0;stroke:#000000;" x="344.747685" xlink:href="#me6d63dc41e" y="46.9605"/>
     <use style="fill-opacity:0;stroke:#000000;" x="344.747685" xlink:href="#me6d63dc41e" y="46.9605"/>
     <use style="fill-opacity:0;stroke:#000000;" x="344.747685" xlink:href="#me6d63dc41e" y="46.9605"/>
     <use style="fill-opacity:0;stroke:#000000;" x="344.747685" xlink:href="#me6d63dc41e" y="46.9605"/>
     <use style="fill-opacity:0;stroke:#000000;" x="348.755765" xlink:href="#me6d63dc41e" y="46.9605"/>
     <use style="fill-opacity:0;stroke:#000000;" x="384.828493" xlink:href="#me6d63dc41e" y="46.9605"/>
     <use style="fill-opacity:0;stroke:#000000;" x="328.715361" xlink:href="#me6d63dc41e" y="46.9605"/>
     <use style="fill-opacity:0;stroke:#000000;" x="352.763846" xlink:href="#me6d63dc41e" y="46.9605"/>
     <use style="fill-opacity:0;stroke:#000000;" x="320.6992" xlink:href="#me6d63dc41e" y="46.9605"/>
     <use style="fill-opacity:0;stroke:#000000;" x="320.6992" xlink:href="#me6d63dc41e" y="46.9605"/>
     <use style="fill-opacity:0;stroke:#000000;" x="320.6992" xlink:href="#me6d63dc41e" y="46.9605"/>
     <use style="fill-opacity:0;stroke:#000000;" x="348.755765" xlink:href="#me6d63dc41e" y="46.9605"/>
     <use style="fill-opacity:0;stroke:#000000;" x="320.6992" xlink:href="#me6d63dc41e" y="46.9605"/>
     <use style="fill-opacity:0;stroke:#000000;" x="352.763846" xlink:href="#me6d63dc41e" y="46.9605"/>
     <use style="fill-opacity:0;stroke:#000000;" x="364.788089" xlink:href="#me6d63dc41e" y="46.9605"/>
     <use style="fill-opacity:0;stroke:#000000;" x="364.788089" xlink:href="#me6d63dc41e" y="46.9605"/>
     <use style="fill-opacity:0;stroke:#000000;" x="364.788089" xlink:href="#me6d63dc41e" y="46.9605"/>
     <use style="fill-opacity:0;stroke:#000000;" x="364.788089" xlink:href="#me6d63dc41e" y="46.9605"/>
     <use style="fill-opacity:0;stroke:#000000;" x="364.788089" xlink:href="#me6d63dc41e" y="46.9605"/>
     <use style="fill-opacity:0;stroke:#000000;" x="356.771927" xlink:href="#me6d63dc41e" y="46.9605"/>
     <use style="fill-opacity:0;stroke:#000000;" x="332.723442" xlink:href="#me6d63dc41e" y="46.9605"/>
     <use style="fill-opacity:0;stroke:#000000;" x="368.79617" xlink:href="#me6d63dc41e" y="46.9605"/>
     <use style="fill-opacity:0;stroke:#000000;" x="368.79617" xlink:href="#me6d63dc41e" y="46.9605"/>
     <use style="fill-opacity:0;stroke:#000000;" x="320.6992" xlink:href="#me6d63dc41e" y="46.9605"/>
     <use style="fill-opacity:0;stroke:#000000;" x="356.771927" xlink:href="#me6d63dc41e" y="46.9605"/>
     <use style="fill-opacity:0;stroke:#000000;" x="348.755765" xlink:href="#me6d63dc41e" y="46.9605"/>
     <use style="fill-opacity:0;stroke:#000000;" x="348.755765" xlink:href="#me6d63dc41e" y="46.9605"/>
     <use style="fill-opacity:0;stroke:#000000;" x="360.780008" xlink:href="#me6d63dc41e" y="46.9605"/>
     <use style="fill-opacity:0;stroke:#000000;" x="392.844654" xlink:href="#me6d63dc41e" y="46.9605"/>
     <use style="fill-opacity:0;stroke:#000000;" x="392.844654" xlink:href="#me6d63dc41e" y="46.9605"/>
     <use style="fill-opacity:0;stroke:#000000;" x="320.6992" xlink:href="#me6d63dc41e" y="46.9605"/>
     <use style="fill-opacity:0;stroke:#000000;" x="332.723442" xlink:href="#me6d63dc41e" y="46.9605"/>
     <use style="fill-opacity:0;stroke:#000000;" x="332.723442" xlink:href="#me6d63dc41e" y="46.9605"/>
     <use style="fill-opacity:0;stroke:#000000;" x="344.747685" xlink:href="#me6d63dc41e" y="46.9605"/>
     <use style="fill-opacity:0;stroke:#000000;" x="324.707281" xlink:href="#me6d63dc41e" y="46.9605"/>
     <use style="fill-opacity:0;stroke:#000000;" x="364.788089" xlink:href="#me6d63dc41e" y="46.9605"/>
     <use style="fill-opacity:0;stroke:#000000;" x="364.788089" xlink:href="#me6d63dc41e" y="46.9605"/>
     <use style="fill-opacity:0;stroke:#000000;" x="348.755765" xlink:href="#me6d63dc41e" y="46.9605"/>
     <use style="fill-opacity:0;stroke:#000000;" x="388.836574" xlink:href="#me6d63dc41e" y="46.9605"/>
     <use style="fill-opacity:0;stroke:#000000;" x="356.771927" xlink:href="#me6d63dc41e" y="46.9605"/>
     <use style="fill-opacity:0;stroke:#000000;" x="356.771927" xlink:href="#me6d63dc41e" y="46.9605"/>
    </g>
   </g>
   <g id="line2d_66">
    <path clip-path="url(#p2db7ea8d40)" d="M 232.521422 283.4265 
L 232.521422 267.1185 
" style="fill:none;stroke:#55a868;stroke-linecap:round;"/>
   </g>
   <g id="line2d_67">
    <path clip-path="url(#p2db7ea8d40)" d="M 252.561826 250.8105 
L 252.561826 234.5025 
" style="fill:none;stroke:#55a868;stroke-linecap:round;"/>
   </g>
   <g id="line2d_68">
    <path clip-path="url(#p2db7ea8d40)" d="M 248.553745 218.1945 
L 248.553745 201.8865 
" style="fill:none;stroke:#55a868;stroke-linecap:round;"/>
   </g>
   <g id="line2d_69">
    <path clip-path="url(#p2db7ea8d40)" d="M 216.489099 185.5785 
L 216.489099 169.2705 
" style="fill:none;stroke:#55a868;stroke-linecap:round;"/>
   </g>
   <g id="line2d_70">
    <path clip-path="url(#p2db7ea8d40)" d="M 212.481018 152.9625 
L 212.481018 136.6545 
" style="fill:none;stroke:#55a868;stroke-linecap:round;"/>
   </g>
   <g id="line2d_71">
    <path clip-path="url(#p2db7ea8d40)" d="M 204.464856 120.3465 
L 204.464856 104.0385 
" style="fill:none;stroke:#55a868;stroke-linecap:round;"/>
   </g>
   <g id="line2d_72">
    <path clip-path="url(#p2db7ea8d40)" d="M 212.481018 87.7305 
L 212.481018 71.4225 
" style="fill:none;stroke:#55a868;stroke-linecap:round;"/>
   </g>
   <g id="line2d_73">
    <path clip-path="url(#p2db7ea8d40)" d="M 204.464856 55.1145 
L 204.464856 38.8065 
" style="fill:none;stroke:#55a868;stroke-linecap:round;"/>
   </g>
   <g id="patch_3">
    <path d="M 112.078594 291.5805 
L 112.078594 30.6525 
" style="fill:none;stroke:#ffffff;stroke-linecap:square;stroke-linejoin:miter;stroke-width:1.25;"/>
   </g>
   <g id="patch_4">
    <path d="M 469.198594 291.5805 
L 469.198594 30.6525 
" style="fill:none;stroke:#ffffff;stroke-linecap:square;stroke-linejoin:miter;stroke-width:1.25;"/>
   </g>
   <g id="patch_5">
    <path d="M 112.078594 291.5805 
L 469.198594 291.5805 
" style="fill:none;stroke:#ffffff;stroke-linecap:square;stroke-linejoin:miter;stroke-width:1.25;"/>
   </g>
   <g id="patch_6">
    <path d="M 112.078594 30.6525 
L 469.198594 30.6525 
" style="fill:none;stroke:#ffffff;stroke-linecap:square;stroke-linejoin:miter;stroke-width:1.25;"/>
   </g>
   <g id="text_18">
    <!-- Age Distribution by Education -->
    <g style="fill:#262626;" transform="translate(112.078594 18.6525)scale(0.16 -0.16)">
     <defs>
      <path d="M 71.828125 0 
L 56.109375 0 
L 49.859375 16.265625 
L 21.234375 16.265625 
L 15.328125 0 
L 0 0 
L 27.875 71.578125 
L 43.171875 71.578125 
z
M 45.21875 28.328125 
L 35.359375 54.890625 
L 25.6875 28.328125 
z
" id="Arial-BoldMT-65"/>
      <path d="M 5.90625 -3.421875 
L 21.578125 -5.328125 
Q 21.96875 -8.0625 23.390625 -9.078125 
Q 25.34375 -10.546875 29.546875 -10.546875 
Q 34.90625 -10.546875 37.59375 -8.9375 
Q 39.40625 -7.859375 40.328125 -5.46875 
Q 40.96875 -3.765625 40.96875 0.828125 
L 40.96875 8.40625 
Q 34.8125 0 25.4375 0 
Q 14.984375 0 8.890625 8.84375 
Q 4.109375 15.828125 4.109375 26.21875 
Q 4.109375 39.265625 10.375 46.140625 
Q 16.65625 53.03125 25.984375 53.03125 
Q 35.59375 53.03125 41.84375 44.578125 
L 41.84375 51.859375 
L 54.6875 51.859375 
L 54.6875 5.328125 
Q 54.6875 -3.859375 53.171875 -8.390625 
Q 51.65625 -12.9375 48.921875 -15.515625 
Q 46.1875 -18.109375 41.625 -19.578125 
Q 37.0625 -21.046875 30.078125 -21.046875 
Q 16.890625 -21.046875 11.375 -16.53125 
Q 5.859375 -12.015625 5.859375 -5.078125 
Q 5.859375 -4.390625 5.90625 -3.421875 
z
M 18.171875 27 
Q 18.171875 18.75 21.359375 14.90625 
Q 24.5625 11.078125 29.25 11.078125 
Q 34.28125 11.078125 37.75 15.015625 
Q 41.21875 18.953125 41.21875 26.65625 
Q 41.21875 34.71875 37.890625 38.625 
Q 34.578125 42.53125 29.5 42.53125 
Q 24.5625 42.53125 21.359375 38.6875 
Q 18.171875 34.859375 18.171875 27 
z
" id="Arial-BoldMT-103"/>
      <path d="M 37.203125 16.5 
L 50.875 14.203125 
Q 48.25 6.6875 42.546875 2.75 
Q 36.859375 -1.171875 28.328125 -1.171875 
Q 14.796875 -1.171875 8.296875 7.671875 
Q 3.171875 14.75 3.171875 25.53125 
Q 3.171875 38.421875 9.90625 45.71875 
Q 16.65625 53.03125 26.953125 53.03125 
Q 38.53125 53.03125 45.21875 45.390625 
Q 51.90625 37.75 51.609375 21.96875 
L 17.234375 21.96875 
Q 17.390625 15.875 20.5625 12.46875 
Q 23.734375 9.078125 28.46875 9.078125 
Q 31.6875 9.078125 33.875 10.828125 
Q 36.078125 12.59375 37.203125 16.5 
z
M 37.984375 30.375 
Q 37.84375 36.328125 34.90625 39.421875 
Q 31.984375 42.53125 27.78125 42.53125 
Q 23.296875 42.53125 20.359375 39.265625 
Q 17.4375 35.984375 17.484375 30.375 
z
" id="Arial-BoldMT-101"/>
      <path id="Arial-BoldMT-32"/>
      <path d="M 7.234375 71.578125 
L 33.640625 71.578125 
Q 42.578125 71.578125 47.265625 70.21875 
Q 53.5625 68.359375 58.046875 63.625 
Q 62.546875 58.890625 64.890625 52.03125 
Q 67.234375 45.171875 67.234375 35.109375 
Q 67.234375 26.265625 65.046875 19.875 
Q 62.359375 12.0625 57.375 7.234375 
Q 53.609375 3.5625 47.21875 1.515625 
Q 42.4375 0 34.421875 0 
L 7.234375 0 
z
M 21.6875 59.46875 
L 21.6875 12.0625 
L 32.46875 12.0625 
Q 38.53125 12.0625 41.21875 12.75 
Q 44.734375 13.625 47.046875 15.71875 
Q 49.359375 17.828125 50.828125 22.625 
Q 52.296875 27.4375 52.296875 35.75 
Q 52.296875 44.046875 50.828125 48.484375 
Q 49.359375 52.9375 46.71875 55.421875 
Q 44.09375 57.90625 40.046875 58.796875 
Q 37.015625 59.46875 28.171875 59.46875 
z
" id="Arial-BoldMT-68"/>
      <path d="M 7.171875 58.890625 
L 7.171875 71.578125 
L 20.90625 71.578125 
L 20.90625 58.890625 
z
M 7.171875 0 
L 7.171875 51.859375 
L 20.90625 51.859375 
L 20.90625 0 
z
" id="Arial-BoldMT-105"/>
      <path d="M 2.34375 14.796875 
L 16.109375 16.890625 
Q 17 12.890625 19.671875 10.8125 
Q 22.359375 8.734375 27.203125 8.734375 
Q 32.515625 8.734375 35.203125 10.6875 
Q 37.015625 12.0625 37.015625 14.359375 
Q 37.015625 15.921875 36.03125 16.9375 
Q 35.015625 17.921875 31.453125 18.75 
Q 14.84375 22.40625 10.40625 25.4375 
Q 4.25 29.640625 4.25 37.109375 
Q 4.25 43.84375 9.5625 48.4375 
Q 14.890625 53.03125 26.078125 53.03125 
Q 36.71875 53.03125 41.890625 49.5625 
Q 47.078125 46.09375 49.03125 39.3125 
L 36.078125 36.921875 
Q 35.25 39.9375 32.921875 41.546875 
Q 30.609375 43.171875 26.3125 43.171875 
Q 20.90625 43.171875 18.5625 41.65625 
Q 17 40.578125 17 38.875 
Q 17 37.40625 18.359375 36.375 
Q 20.21875 35.015625 31.171875 32.515625 
Q 42.140625 30.03125 46.484375 26.421875 
Q 50.78125 22.75 50.78125 16.21875 
Q 50.78125 9.078125 44.828125 3.953125 
Q 38.875 -1.171875 27.203125 -1.171875 
Q 16.609375 -1.171875 10.421875 3.125 
Q 4.25 7.421875 2.34375 14.796875 
z
" id="Arial-BoldMT-115"/>
      <path d="M 30.953125 51.859375 
L 30.953125 40.921875 
L 21.578125 40.921875 
L 21.578125 20.015625 
Q 21.578125 13.671875 21.84375 12.625 
Q 22.125 11.578125 23.078125 10.890625 
Q 24.03125 10.203125 25.390625 10.203125 
Q 27.296875 10.203125 30.90625 11.53125 
L 32.078125 0.875 
Q 27.296875 -1.171875 21.234375 -1.171875 
Q 17.53125 -1.171875 14.546875 0.0625 
Q 11.578125 1.3125 10.1875 3.296875 
Q 8.796875 5.28125 8.25 8.640625 
Q 7.8125 11.03125 7.8125 18.3125 
L 7.8125 40.921875 
L 1.515625 40.921875 
L 1.515625 51.859375 
L 7.8125 51.859375 
L 7.8125 62.15625 
L 21.578125 70.171875 
L 21.578125 51.859375 
z
" id="Arial-BoldMT-116"/>
      <path d="M 20.3125 0 
L 6.59375 0 
L 6.59375 51.859375 
L 19.34375 51.859375 
L 19.34375 44.484375 
Q 22.609375 49.703125 25.21875 51.359375 
Q 27.828125 53.03125 31.15625 53.03125 
Q 35.84375 53.03125 40.1875 50.4375 
L 35.9375 38.484375 
Q 32.46875 40.71875 29.5 40.71875 
Q 26.609375 40.71875 24.609375 39.125 
Q 22.609375 37.546875 21.453125 33.390625 
Q 20.3125 29.25 20.3125 16.015625 
z
" id="Arial-BoldMT-114"/>
      <path d="M 6.59375 0 
L 6.59375 71.578125 
L 20.3125 71.578125 
L 20.3125 45.796875 
Q 26.65625 53.03125 35.359375 53.03125 
Q 44.828125 53.03125 51.03125 46.171875 
Q 57.234375 39.3125 57.234375 26.46875 
Q 57.234375 13.1875 50.90625 6 
Q 44.578125 -1.171875 35.546875 -1.171875 
Q 31.109375 -1.171875 26.78125 1.046875 
Q 22.46875 3.265625 19.34375 7.625 
L 19.34375 0 
z
M 20.21875 27.046875 
Q 20.21875 19 22.75 15.140625 
Q 26.3125 9.671875 32.234375 9.671875 
Q 36.765625 9.671875 39.96875 13.546875 
Q 43.171875 17.4375 43.171875 25.78125 
Q 43.171875 34.671875 39.9375 38.59375 
Q 36.71875 42.53125 31.6875 42.53125 
Q 26.765625 42.53125 23.484375 38.6875 
Q 20.21875 34.859375 20.21875 27.046875 
z
" id="Arial-BoldMT-98"/>
      <path d="M 41.3125 0 
L 41.3125 7.765625 
Q 38.484375 3.609375 33.859375 1.21875 
Q 29.25 -1.171875 24.125 -1.171875 
Q 18.890625 -1.171875 14.734375 1.125 
Q 10.59375 3.421875 8.734375 7.5625 
Q 6.890625 11.71875 6.890625 19.046875 
L 6.890625 51.859375 
L 20.609375 51.859375 
L 20.609375 28.03125 
Q 20.609375 17.09375 21.359375 14.625 
Q 22.125 12.15625 24.125 10.71875 
Q 26.125 9.28125 29.203125 9.28125 
Q 32.71875 9.28125 35.5 11.203125 
Q 38.28125 13.140625 39.296875 15.984375 
Q 40.328125 18.84375 40.328125 29.984375 
L 40.328125 51.859375 
L 54.046875 51.859375 
L 54.046875 0 
z
" id="Arial-BoldMT-117"/>
      <path d="M 4 26.65625 
Q 4 33.5 7.375 39.890625 
Q 10.75 46.296875 16.921875 49.65625 
Q 23.09375 53.03125 30.71875 53.03125 
Q 42.484375 53.03125 50 45.390625 
Q 57.515625 37.75 57.515625 26.078125 
Q 57.515625 14.3125 49.921875 6.5625 
Q 42.328125 -1.171875 30.8125 -1.171875 
Q 23.6875 -1.171875 17.21875 2.046875 
Q 10.75 5.28125 7.375 11.5 
Q 4 17.71875 4 26.65625 
z
M 18.0625 25.921875 
Q 18.0625 18.21875 21.71875 14.109375 
Q 25.390625 10.015625 30.765625 10.015625 
Q 36.140625 10.015625 39.765625 14.109375 
Q 43.40625 18.21875 43.40625 26.03125 
Q 43.40625 33.640625 39.765625 37.734375 
Q 36.140625 41.84375 30.765625 41.84375 
Q 25.390625 41.84375 21.71875 37.734375 
Q 18.0625 33.640625 18.0625 25.921875 
z
" id="Arial-BoldMT-111"/>
      <path d="M 54.34375 0 
L 40.625 0 
L 40.625 26.46875 
Q 40.625 34.859375 39.75 37.328125 
Q 38.875 39.796875 36.890625 41.15625 
Q 34.90625 42.53125 32.125 42.53125 
Q 28.5625 42.53125 25.734375 40.578125 
Q 22.90625 38.625 21.84375 35.390625 
Q 20.796875 32.171875 20.796875 23.484375 
L 20.796875 0 
L 7.078125 0 
L 7.078125 51.859375 
L 19.828125 51.859375 
L 19.828125 44.234375 
Q 26.609375 53.03125 36.921875 53.03125 
Q 41.453125 53.03125 45.203125 51.390625 
Q 48.96875 49.75 50.890625 47.203125 
Q 52.828125 44.671875 53.578125 41.453125 
Q 54.34375 38.234375 54.34375 32.234375 
z
" id="Arial-BoldMT-110"/>
      <path d="M 0.6875 51.859375 
L 15.28125 51.859375 
L 27.6875 15.046875 
L 39.796875 51.859375 
L 54 51.859375 
L 35.6875 1.953125 
L 32.421875 -7.078125 
Q 30.609375 -11.625 28.96875 -14.015625 
Q 27.34375 -16.40625 25.21875 -17.890625 
Q 23.09375 -19.390625 19.984375 -20.21875 
Q 16.890625 -21.046875 12.984375 -21.046875 
Q 9.03125 -21.046875 5.21875 -20.21875 
L 4 -9.46875 
Q 7.234375 -10.109375 9.8125 -10.109375 
Q 14.59375 -10.109375 16.890625 -7.296875 
Q 19.1875 -4.5 20.40625 -0.140625 
z
" id="Arial-BoldMT-121"/>
      <path d="M 7.28125 0 
L 7.28125 71.578125 
L 60.359375 71.578125 
L 60.359375 59.46875 
L 21.734375 59.46875 
L 21.734375 43.609375 
L 57.671875 43.609375 
L 57.671875 31.546875 
L 21.734375 31.546875 
L 21.734375 12.0625 
L 61.71875 12.0625 
L 61.71875 0 
z
" id="Arial-BoldMT-69"/>
      <path d="M 54.734375 0 
L 42 0 
L 42 7.625 
Q 38.8125 3.171875 34.484375 1 
Q 30.171875 -1.171875 25.78125 -1.171875 
Q 16.84375 -1.171875 10.46875 6.03125 
Q 4.109375 13.234375 4.109375 26.125 
Q 4.109375 39.3125 10.296875 46.171875 
Q 16.5 53.03125 25.984375 53.03125 
Q 34.671875 53.03125 41.015625 45.796875 
L 41.015625 71.578125 
L 54.734375 71.578125 
z
M 18.109375 27.046875 
Q 18.109375 18.75 20.40625 15.046875 
Q 23.734375 9.671875 29.6875 9.671875 
Q 34.421875 9.671875 37.734375 13.6875 
Q 41.0625 17.71875 41.0625 25.734375 
Q 41.0625 34.671875 37.84375 38.59375 
Q 34.625 42.53125 29.59375 42.53125 
Q 24.703125 42.53125 21.40625 38.640625 
Q 18.109375 34.765625 18.109375 27.046875 
z
" id="Arial-BoldMT-100"/>
      <path d="M 52.390625 36.53125 
L 38.875 34.078125 
Q 38.1875 38.140625 35.765625 40.1875 
Q 33.34375 42.234375 29.5 42.234375 
Q 24.359375 42.234375 21.3125 38.6875 
Q 18.265625 35.15625 18.265625 26.859375 
Q 18.265625 17.625 21.359375 13.8125 
Q 24.46875 10.015625 29.6875 10.015625 
Q 33.59375 10.015625 36.078125 12.234375 
Q 38.578125 14.453125 39.59375 19.875 
L 53.078125 17.578125 
Q 50.984375 8.296875 45.015625 3.5625 
Q 39.0625 -1.171875 29.046875 -1.171875 
Q 17.671875 -1.171875 10.90625 6 
Q 4.15625 13.1875 4.15625 25.875 
Q 4.15625 38.71875 10.9375 45.875 
Q 17.71875 53.03125 29.296875 53.03125 
Q 38.765625 53.03125 44.359375 48.953125 
Q 49.953125 44.875 52.390625 36.53125 
z
" id="Arial-BoldMT-99"/>
      <path d="M 17.4375 36.03125 
L 4.984375 38.28125 
Q 7.078125 45.796875 12.203125 49.40625 
Q 17.328125 53.03125 27.4375 53.03125 
Q 36.625 53.03125 41.109375 50.859375 
Q 45.609375 48.6875 47.4375 45.34375 
Q 49.265625 42 49.265625 33.0625 
L 49.125 17.046875 
Q 49.125 10.203125 49.78125 6.953125 
Q 50.4375 3.71875 52.25 0 
L 38.671875 0 
Q 38.140625 1.375 37.359375 4.046875 
Q 37.015625 5.28125 36.859375 5.671875 
Q 33.34375 2.25 29.34375 0.53125 
Q 25.34375 -1.171875 20.796875 -1.171875 
Q 12.796875 -1.171875 8.171875 3.171875 
Q 3.5625 7.515625 3.5625 14.15625 
Q 3.5625 18.5625 5.65625 22 
Q 7.765625 25.4375 11.546875 27.265625 
Q 15.328125 29.109375 22.46875 30.46875 
Q 32.078125 32.28125 35.796875 33.84375 
L 35.796875 35.203125 
Q 35.796875 39.15625 33.84375 40.84375 
Q 31.890625 42.53125 26.46875 42.53125 
Q 22.796875 42.53125 20.75 41.09375 
Q 18.703125 39.65625 17.4375 36.03125 
z
M 35.796875 24.90625 
Q 33.15625 24.03125 27.4375 22.796875 
Q 21.734375 21.578125 19.96875 20.40625 
Q 17.28125 18.5 17.28125 15.578125 
Q 17.28125 12.703125 19.421875 10.59375 
Q 21.578125 8.5 24.90625 8.5 
Q 28.609375 8.5 31.984375 10.9375 
Q 34.46875 12.796875 35.25 15.484375 
Q 35.796875 17.234375 35.796875 22.171875 
z
" id="Arial-BoldMT-97"/>
     </defs>
     <use xlink:href="#Arial-BoldMT-65"/>
     <use x="72.216797" xlink:href="#Arial-BoldMT-103"/>
     <use x="133.300781" xlink:href="#Arial-BoldMT-101"/>
     <use x="188.916016" xlink:href="#Arial-BoldMT-32"/>
     <use x="216.699219" xlink:href="#Arial-BoldMT-68"/>
     <use x="288.916016" xlink:href="#Arial-BoldMT-105"/>
     <use x="316.699219" xlink:href="#Arial-BoldMT-115"/>
     <use x="372.314453" xlink:href="#Arial-BoldMT-116"/>
     <use x="405.615234" xlink:href="#Arial-BoldMT-114"/>
     <use x="444.53125" xlink:href="#Arial-BoldMT-105"/>
     <use x="472.314453" xlink:href="#Arial-BoldMT-98"/>
     <use x="533.398438" xlink:href="#Arial-BoldMT-117"/>
     <use x="594.482422" xlink:href="#Arial-BoldMT-116"/>
     <use x="627.783203" xlink:href="#Arial-BoldMT-105"/>
     <use x="655.566406" xlink:href="#Arial-BoldMT-111"/>
     <use x="716.650391" xlink:href="#Arial-BoldMT-110"/>
     <use x="777.734375" xlink:href="#Arial-BoldMT-32"/>
     <use x="805.517578" xlink:href="#Arial-BoldMT-98"/>
     <use x="866.601562" xlink:href="#Arial-BoldMT-121"/>
     <use x="922.216797" xlink:href="#Arial-BoldMT-32"/>
     <use x="950" xlink:href="#Arial-BoldMT-69"/>
     <use x="1016.699219" xlink:href="#Arial-BoldMT-100"/>
     <use x="1077.783203" xlink:href="#Arial-BoldMT-117"/>
     <use x="1138.867188" xlink:href="#Arial-BoldMT-99"/>
     <use x="1194.482422" xlink:href="#Arial-BoldMT-97"/>
     <use x="1250.097656" xlink:href="#Arial-BoldMT-116"/>
     <use x="1283.398438" xlink:href="#Arial-BoldMT-105"/>
     <use x="1311.181641" xlink:href="#Arial-BoldMT-111"/>
     <use x="1372.265625" xlink:href="#Arial-BoldMT-110"/>
    </g>
   </g>
  </g>
 </g>
 <defs>
  <clipPath id="p2db7ea8d40">
   <rect height="260.928" width="357.12" x="112.078594" y="30.6525"/>
  </clipPath>
 </defs>
</svg>
